<?xml version="1.0" encoding="UTF-8" standalone="no"?>
<!-- Created with Inkscape (http://www.inkscape.org/) -->

<svg
   width="56.223961mm"
   height="19.84375mm"
   viewBox="0 0 56.223961 19.84375"
   version="1.1"
   id="svg5"
   inkscape:export-filename="SVG.jpg"
   inkscape:export-xdpi="96"
   inkscape:export-ydpi="96"
   xmlns:inkscape="http://www.inkscape.org/namespaces/inkscape"
   xmlns:sodipodi="http://sodipodi.sourceforge.net/DTD/sodipodi-0.dtd"
   xmlns:xlink="http://www.w3.org/1999/xlink"
   xmlns="http://www.w3.org/2000/svg"
   xmlns:svg="http://www.w3.org/2000/svg">
  <sodipodi:namedview
     id="namedview7"
     pagecolor="#ffffff"
     bordercolor="#000000"
     borderopacity="0.25"
     inkscape:showpageshadow="2"
     inkscape:pageopacity="0.0"
     inkscape:pagecheckerboard="0"
     inkscape:deskcolor="#d1d1d1"
     inkscape:document-units="mm"
     showgrid="true">
    <inkscape:grid
       type="xygrid"
       id="grid9"
       spacingx="0.66145834"
       spacingy="0.66145834" />
  </sodipodi:namedview>
  <defs
     id="defs2">
    <linearGradient
       inkscape:collect="always"
       id="linearGradient1780">
      <stop
         style="stop-color:#50cbf5;stop-opacity:1;"
         offset="0"
         id="stop1776" />
      <stop
         style="stop-color:#91b4b3;stop-opacity:0.47280335;"
         offset="1"
         id="stop1778" />
    </linearGradient>
    <linearGradient
       inkscape:collect="always"
       xlink:href="#linearGradient1780"
       id="linearGradient1782"
       x1="38.459785"
       y1="62.838543"
       x2="94.683746"
       y2="62.838543"
       gradientUnits="userSpaceOnUse"
       gradientTransform="translate(-0.4259319,29.765621)" />
  </defs>
  <g
     inkscape:label="Layer 1"
     inkscape:groupmode="layer"
     id="layer1"
     transform="translate(-38.033852,-82.682294)">
    <rect
       style="fill:url(#linearGradient1782);fill-opacity:1;stroke-width:0.298756"
       id="rect115"
       width="56.223961"
       height="19.84375"
       x="38.033855"
       y="82.682289"
       ry="7.9374995"
       inkscape:export-filename=".\rect115.svg"
       inkscape:export-xdpi="96"
       inkscape:export-ydpi="96" />
    <g
       aria-label="Click Here to View The Gitlab Pages Manual for this Repository!"
       transform="matrix(1.0331134,0,0,1.1195545,-15.15302,26.35109)"
       id="text1745"
       style="font-size:3.175px;white-space:pre;inline-size:46.3021;stroke-width:0.264583">
      <path
         d="m 58.306285,53.931444 q 0.227948,0 0.384256,0.06024 0.156308,0.05861 0.293077,0.169333 l -0.197013,0.234462 q -0.200269,-0.166077 -0.46241,-0.166077 -0.167705,0 -0.309359,0.08467 -0.141654,0.08467 -0.227949,0.275167 -0.08467,0.1905 -0.08467,0.508 0,0.310987 0.08141,0.501487 0.08141,0.1905 0.221436,0.276795 0.141654,0.08629 0.319128,0.08629 0.180731,0 0.29959,-0.05861 0.118859,-0.06024 0.210038,-0.135141 l 0.182359,0.232833 q -0.112346,0.10909 -0.284936,0.188872 -0.17259,0.07815 -0.420077,0.07815 -0.286564,0 -0.512884,-0.133513 -0.226321,-0.133513 -0.358206,-0.394026 -0.130256,-0.262141 -0.130256,-0.643141 0,-0.377743 0.135141,-0.636628 0.135141,-0.260513 0.359833,-0.394026 0.226321,-0.135141 0.501488,-0.135141 z"
         style="font-weight:500;font-family:'Fira Code';-inkscape-font-specification:'Fira Code,  weight=450';text-align:center;text-anchor:middle"
         id="path3039" />
      <path
         d="m 60.139645,53.814214 v 1.94082 q 0,0.118859 0.07164,0.169333 0.07327,0.04885 0.188872,0.04885 0.07327,0 0.140025,-0.01465 0.06838,-0.01628 0.131885,-0.04233 l 0.09281,0.254 q -0.07653,0.03908 -0.188872,0.06838 -0.110718,0.02931 -0.254,0.02931 -0.258885,0 -0.403795,-0.146539 -0.143282,-0.146538 -0.143282,-0.39891 V 54.082867 H 59.25553 v -0.268653 z"
         style="font-weight:500;font-family:'Fira Code';-inkscape-font-specification:'Fira Code,  weight=450';text-align:center;text-anchor:middle"
         id="path3041" />
      <path
         d="m 62.02348,53.66279 q 0.107461,0 0.172589,0.06513 0.06676,0.06513 0.06676,0.16282 0,0.09769 -0.06676,0.164449 -0.06513,0.06676 -0.172589,0.06676 -0.104205,0 -0.170962,-0.06676 -0.06676,-0.06676 -0.06676,-0.164449 0,-0.09769 0.06676,-0.16282 0.06676,-0.06513 0.170962,-0.06513 z m 0.254,0.841782 v 1.452359 h 0.467295 v 0.267026 h -1.346526 v -0.267026 h 0.514513 v -1.185333 h -0.498231 v -0.267026 z"
         style="font-weight:500;font-family:'Fira Code';-inkscape-font-specification:'Fira Code,  weight=450';text-align:center;text-anchor:middle"
         id="path3043" />
      <path
         d="m 64.120609,55.968329 q 0.120488,0 0.224693,-0.04233 0.104205,-0.04233 0.198641,-0.107462 l 0.169333,0.234462 q -0.112346,0.09606 -0.273538,0.156307 -0.159565,0.05862 -0.330526,0.05862 -0.263769,0 -0.452641,-0.110718 -0.187244,-0.112346 -0.286564,-0.312616 -0.09769,-0.201897 -0.09769,-0.472179 0,-0.262141 0.09932,-0.467295 0.100949,-0.206782 0.289821,-0.325641 0.188871,-0.120487 0.454269,-0.120487 0.345179,0 0.595923,0.206782 l -0.167705,0.229577 q -0.100949,-0.07001 -0.206782,-0.105834 -0.105834,-0.03745 -0.214923,-0.03745 -0.205154,0 -0.333782,0.149795 -0.128629,0.149794 -0.128629,0.470551 0,0.322384 0.130257,0.459154 0.130256,0.136769 0.330525,0.136769 z"
         style="font-weight:500;font-family:'Fira Code';-inkscape-font-specification:'Fira Code,  weight=450';text-align:center;text-anchor:middle"
         id="path3045" />
      <path
         d="m 65.621816,53.773508 v 2.450449 h -0.364718 v -2.409743 z m 1.138115,0.731064 -0.695243,0.768513 0.768512,0.950872 h -0.446128 l -0.739205,-0.941102 0.687103,-0.778283 z"
         style="font-weight:500;font-family:'Fira Code';-inkscape-font-specification:'Fira Code,  weight=450';text-align:center;text-anchor:middle"
         id="path3047" />
      <path
         d="m 70.206844,56.223957 v -1.020885 h -0.732692 v 1.020885 h -0.377744 v -2.246923 h 0.377744 v 0.915051 h 0.732692 v -0.915051 h 0.377744 v 2.246923 z"
         style="font-weight:500;font-family:'Fira Code';-inkscape-font-specification:'Fira Code,  weight=450';text-align:center;text-anchor:middle"
         id="path3049" />
      <path
         d="m 71.410089,55.481496 q 0.01628,0.265397 0.148166,0.384256 0.133513,0.118859 0.320757,0.118859 0.125372,0 0.232833,-0.03908 0.10909,-0.03908 0.21818,-0.110718 l 0.157936,0.21818 q -0.120488,0.09769 -0.28168,0.156307 -0.161192,0.05862 -0.345179,0.05862 -0.268654,0 -0.45427,-0.113975 -0.183987,-0.113974 -0.280051,-0.3175 -0.09444,-0.203525 -0.09444,-0.470551 0,-0.258885 0.09444,-0.46241 0.09444,-0.205154 0.270282,-0.324013 0.175846,-0.120487 0.420077,-0.120487 0.341923,0 0.540564,0.229577 0.200269,0.229577 0.200269,0.630115 0,0.04396 -0.0033,0.08792 -0.0016,0.04233 -0.0049,0.0749 z m 0.410307,-0.752231 q -0.170961,0 -0.283307,0.122115 -0.112346,0.122116 -0.128628,0.381 h 0.796192 q -0.0049,-0.242602 -0.104205,-0.372859 -0.09769,-0.130256 -0.280052,-0.130256 z"
         style="font-weight:500;font-family:'Fira Code';-inkscape-font-specification:'Fira Code,  weight=450';text-align:center;text-anchor:middle"
         id="path3051" />
      <path
         d="m 73.077373,56.223957 v -0.260513 h 0.252371 v -1.199987 h -0.252371 v -0.258885 h 0.530794 l 0.06676,0.398911 q 0.09606,-0.216552 0.237718,-0.328898 0.143282,-0.113974 0.367974,-0.113974 0.07653,0 0.136769,0.01303 0.06187,0.0114 0.122116,0.03094 l -0.06187,0.633372 H 74.217116 V 54.78788 q -0.182359,0.0065 -0.314243,0.146539 -0.131885,0.138397 -0.208411,0.390769 v 0.638256 h 0.346808 v 0.260513 z"
         style="font-weight:500;font-family:'Fira Code';-inkscape-font-specification:'Fira Code,  weight=450';text-align:center;text-anchor:middle"
         id="path3053" />
      <path
         d="m 75.317784,55.481496 q 0.01628,0.265397 0.148166,0.384256 0.133513,0.118859 0.320757,0.118859 0.125371,0 0.232833,-0.03908 0.10909,-0.03908 0.218179,-0.110718 l 0.157936,0.21818 q -0.120487,0.09769 -0.281679,0.156307 -0.161192,0.05862 -0.34518,0.05862 -0.268653,0 -0.454269,-0.113975 -0.183987,-0.113974 -0.280051,-0.3175 -0.09444,-0.203525 -0.09444,-0.470551 0,-0.258885 0.09444,-0.46241 0.09444,-0.205154 0.270282,-0.324013 0.175846,-0.120487 0.420077,-0.120487 0.341923,0 0.540564,0.229577 0.200269,0.229577 0.200269,0.630115 0,0.04396 -0.0033,0.08792 -0.0016,0.04233 -0.0049,0.0749 z m 0.410307,-0.752231 q -0.170961,0 -0.283307,0.122115 -0.112347,0.122116 -0.128629,0.381 h 0.796193 q -0.0049,-0.242602 -0.104205,-0.372859 -0.09769,-0.130256 -0.280052,-0.130256 z"
         style="font-weight:500;font-family:'Fira Code';-inkscape-font-specification:'Fira Code,  weight=450';text-align:center;text-anchor:middle"
         id="path3055" />
      <path
         d="m 80.35871,56.132778 q -0.09444,0.06024 -0.22632,0.09769 -0.131885,0.03745 -0.275167,0.03745 -0.29959,0 -0.455898,-0.15468 -0.154679,-0.156308 -0.154679,-0.410308 v -0.93296 h -0.382628 v -0.265398 h 0.382628 v -0.384256 l 0.364718,-0.04396 v 0.428217 h 0.579641 L 80.1503,54.76997 h -0.538936 v 0.929705 q 0,0.138397 0.06839,0.206782 0.07001,0.06676 0.227948,0.06676 0.09444,0 0.17259,-0.02279 0.07978,-0.02279 0.146538,-0.05862 z"
         style="font-weight:500;font-family:'Fira Code';-inkscape-font-specification:'Fira Code,  weight=450';text-align:center;text-anchor:middle"
         id="path3057" />
      <path
         d="m 81.565212,54.458983 q 0.377743,0 0.576384,0.245859 0.198641,0.245859 0.198641,0.656166 0,0.273539 -0.09118,0.477064 -0.08955,0.203526 -0.263769,0.3175 -0.17259,0.112347 -0.421705,0.112347 -0.376116,0 -0.576385,-0.242603 -0.200269,-0.244231 -0.200269,-0.661051 0,-0.267026 0.08955,-0.470552 0.09118,-0.205153 0.265398,-0.319128 0.174217,-0.115602 0.423333,-0.115602 z m 0,0.283307 q -0.197013,0 -0.296333,0.151423 -0.09932,0.149795 -0.09932,0.470552 0,0.320756 0.09769,0.472179 0.09932,0.149795 0.296334,0.149795 0.197012,0 0.294705,-0.151423 0.09932,-0.151423 0.09932,-0.473808 0,-0.3175 -0.09769,-0.467295 -0.09769,-0.151423 -0.294706,-0.151423 z"
         style="font-weight:500;font-family:'Fira Code';-inkscape-font-specification:'Fira Code,  weight=450';text-align:center;text-anchor:middle"
         id="path3059" />
      <path
         d="m 85.479419,55.865752 0.537307,-1.888718 h 0.382628 l -0.711525,2.246923 h -0.433103 l -0.711525,-2.246923 h 0.403794 z"
         style="font-weight:500;font-family:'Fira Code';-inkscape-font-specification:'Fira Code,  weight=450';text-align:center;text-anchor:middle"
         id="path3061" />
      <path
         d="m 87.423497,53.66279 q 0.107462,0 0.17259,0.06513 0.06676,0.06513 0.06676,0.16282 0,0.09769 -0.06676,0.164449 -0.06513,0.06676 -0.17259,0.06676 -0.104205,0 -0.170961,-0.06676 -0.06676,-0.06676 -0.06676,-0.164449 0,-0.09769 0.06676,-0.16282 0.06676,-0.06513 0.170961,-0.06513 z m 0.254,0.841782 v 1.452359 h 0.467295 v 0.267026 h -1.346526 v -0.267026 h 0.514513 v -1.185333 h -0.498231 v -0.267026 z"
         style="font-weight:500;font-family:'Fira Code';-inkscape-font-specification:'Fira Code,  weight=450';text-align:center;text-anchor:middle"
         id="path3063" />
      <path
         d="m 88.994717,55.481496 q 0.01628,0.265397 0.148167,0.384256 0.133512,0.118859 0.320756,0.118859 0.125372,0 0.232833,-0.03908 0.10909,-0.03908 0.21818,-0.110718 l 0.157936,0.21818 q -0.120488,0.09769 -0.28168,0.156307 -0.161192,0.05862 -0.345179,0.05862 -0.268654,0 -0.45427,-0.113975 -0.183987,-0.113974 -0.280051,-0.3175 -0.09444,-0.203525 -0.09444,-0.470551 0,-0.258885 0.09444,-0.46241 0.09444,-0.205154 0.270282,-0.324013 0.175846,-0.120487 0.420077,-0.120487 0.341923,0 0.540564,0.229577 0.200269,0.229577 0.200269,0.630115 0,0.04396 -0.0033,0.08792 -0.0016,0.04233 -0.0049,0.0749 z m 0.410308,-0.752231 q -0.170962,0 -0.283308,0.122115 -0.112346,0.122116 -0.128628,0.381 h 0.796192 q -0.0049,-0.242602 -0.104205,-0.372859 -0.09769,-0.130256 -0.280051,-0.130256 z"
         style="font-weight:500;font-family:'Fira Code';-inkscape-font-specification:'Fira Code,  weight=450';text-align:center;text-anchor:middle"
         id="path3065" />
      <path
         d="m 91.990616,56.223957 h -0.455897 l -0.193757,-1.221154 -0.20841,1.221154 h -0.446128 l -0.291449,-1.719385 h 0.351692 l 0.179103,1.493065 0.239346,-1.274885 h 0.364718 l 0.223064,1.274885 0.179103,-1.493065 h 0.338666 z"
         style="font-weight:500;font-family:'Fira Code';-inkscape-font-specification:'Fira Code,  weight=450';text-align:center;text-anchor:middle"
         id="path3067" />
      <path
         d="m 95.424504,54.281508 v 1.942449 h -0.377743 v -1.942449 h -0.674077 v -0.304474 h 1.742179 l -0.03908,0.304474 z"
         style="font-weight:500;font-family:'Fira Code';-inkscape-font-specification:'Fira Code,  weight=450';text-align:center;text-anchor:middle"
         id="path3069" />
      <path
         d="m 96.871978,53.778393 v 0.936218 q 0.104205,-0.127 0.242603,-0.1905 0.140025,-0.06513 0.28982,-0.06513 0.242603,0 0.361462,0.135141 0.118859,0.135141 0.118859,0.376115 v 1.253718 h -0.364718 v -1.196731 q 0,-0.154679 -0.05862,-0.221436 -0.05862,-0.06838 -0.188872,-0.06838 -0.122116,0 -0.226321,0.07978 -0.104205,0.07815 -0.174218,0.177474 v 1.229295 H 96.50726 V 53.81747 Z"
         style="font-weight:500;font-family:'Fira Code';-inkscape-font-specification:'Fira Code,  weight=450';text-align:center;text-anchor:middle"
         id="path3071" />
      <path
         d="m 98.763956,55.481496 q 0.01628,0.265397 0.148167,0.384256 0.133513,0.118859 0.320756,0.118859 0.125372,0 0.232834,-0.03908 0.109089,-0.03908 0.218179,-0.110718 l 0.157936,0.21818 q -0.120487,0.09769 -0.281679,0.156307 -0.161193,0.05862 -0.34518,0.05862 -0.268654,0 -0.454269,-0.113975 -0.183987,-0.113974 -0.280051,-0.3175 -0.09444,-0.203525 -0.09444,-0.470551 0,-0.258885 0.09444,-0.46241 0.09444,-0.205154 0.270282,-0.324013 0.175846,-0.120487 0.420077,-0.120487 0.341923,0 0.540564,0.229577 0.200269,0.229577 0.200269,0.630115 0,0.04396 -0.0033,0.08792 -0.0016,0.04233 -0.0049,0.0749 z m 0.410308,-0.752231 q -0.170962,0 -0.283308,0.122115 -0.112346,0.122116 -0.128628,0.381 h 0.796192 q -0.0049,-0.242602 -0.104205,-0.372859 -0.09769,-0.130256 -0.280051,-0.130256 z"
         style="font-weight:500;font-family:'Fira Code';-inkscape-font-specification:'Fira Code,  weight=450';text-align:center;text-anchor:middle"
         id="path3073" />
      <path
         d="m 57.199104,60.347397 q -0.429846,0 -0.672448,-0.294706 -0.242603,-0.294705 -0.242603,-0.875974 0,-0.384256 0.135141,-0.643141 0.136769,-0.260513 0.359834,-0.390769 0.223064,-0.131885 0.485205,-0.131885 0.229577,0 0.382628,0.06838 0.154679,0.06838 0.286564,0.1905 l -0.211667,0.219807 q -0.102577,-0.09281 -0.210038,-0.138397 -0.105834,-0.04559 -0.237718,-0.04559 -0.157936,0 -0.293077,0.08467 -0.135141,0.08304 -0.21818,0.275167 -0.08304,0.1905 -0.08304,0.512884 0,0.470552 0.135141,0.672449 0.135141,0.201897 0.402167,0.201897 0.198641,0 0.37123,-0.09444 v -0.618717 h -0.381 l -0.04071,-0.288193 h 0.788052 v 1.089269 q -0.159564,0.09118 -0.340295,0.149795 -0.179103,0.05699 -0.415193,0.05699 z"
         style="font-weight:500;font-family:'Fira Code';-inkscape-font-specification:'Fira Code,  weight=450';text-align:center;text-anchor:middle"
         id="path3075" />
      <path
         d="m 59.092708,57.742268 q 0.107462,0 0.17259,0.06513 0.06676,0.06513 0.06676,0.16282 0,0.09769 -0.06676,0.164449 -0.06513,0.06676 -0.17259,0.06676 -0.104205,0 -0.170961,-0.06676 -0.06676,-0.06676 -0.06676,-0.164449 0,-0.09769 0.06676,-0.16282 0.06676,-0.06513 0.170961,-0.06513 z m 0.254,0.841782 v 1.452359 h 0.467295 v 0.267026 H 58.467478 V 60.036409 H 58.98199 V 58.851076 H 58.48376 V 58.58405 Z"
         style="font-weight:500;font-family:'Fira Code';-inkscape-font-specification:'Fira Code,  weight=450';text-align:center;text-anchor:middle"
         id="path3077" />
      <path
         d="m 61.797158,60.212255 q -0.09444,0.06024 -0.22632,0.09769 -0.131885,0.03745 -0.275167,0.03745 -0.299589,0 -0.455897,-0.15468 -0.15468,-0.156308 -0.15468,-0.410308 V 58.849448 H 60.302466 V 58.58405 h 0.382628 v -0.384256 l 0.364718,-0.04396 v 0.428218 h 0.579641 l -0.0407,0.265398 h -0.538936 v 0.929705 q 0,0.138397 0.06838,0.206782 0.07001,0.06676 0.227949,0.06676 0.09444,0 0.172589,-0.02279 0.07978,-0.02279 0.146539,-0.05862 z"
         style="font-weight:500;font-family:'Fira Code';-inkscape-font-specification:'Fira Code,  weight=450';text-align:center;text-anchor:middle"
         id="path3079" />
      <path
         d="m 63.070416,57.893691 v 1.940821 q 0,0.118859 0.07164,0.169333 0.07327,0.04885 0.188872,0.04885 0.07327,0 0.140026,-0.01465 0.06838,-0.01628 0.131884,-0.04233 l 0.09281,0.254 q -0.07653,0.03908 -0.188872,0.06838 -0.110718,0.02931 -0.254,0.02931 -0.258884,0 -0.403795,-0.146539 -0.143282,-0.146538 -0.143282,-0.39891 v -1.639603 h -0.519397 v -0.268654 z"
         style="font-weight:500;font-family:'Fira Code';-inkscape-font-specification:'Fira Code,  weight=450';text-align:center;text-anchor:middle"
         id="path3081" />
      <path
         d="m 65.582738,59.88173 q 0,0.102577 0.03094,0.148167 0.03094,0.04559 0.09932,0.06838 l -0.08141,0.247487 q -0.127,-0.01465 -0.219807,-0.07001 -0.09118,-0.05536 -0.13677,-0.167705 -0.09444,0.120488 -0.239346,0.180731 -0.14491,0.05862 -0.309359,0.05862 -0.262141,0 -0.413564,-0.146539 -0.151423,-0.148167 -0.151423,-0.387513 0,-0.27191 0.211667,-0.418448 0.211666,-0.146539 0.605692,-0.146539 h 0.245859 v -0.112346 q 0,-0.167705 -0.100949,-0.239346 -0.100948,-0.07327 -0.281679,-0.07327 -0.08467,0 -0.205154,0.02279 -0.120487,0.02117 -0.252372,0.06676 l -0.08955,-0.257257 q 0.161192,-0.06024 0.315872,-0.08792 0.154679,-0.02931 0.286564,-0.02931 0.345179,0 0.514513,0.153051 0.170961,0.153051 0.170961,0.423333 z m -0.745718,0.197013 q 0.110718,0 0.216551,-0.05862 0.105834,-0.05862 0.170962,-0.164448 v -0.379372 h -0.201897 q -0.257257,0 -0.367975,0.08629 -0.110718,0.08467 -0.110718,0.234461 0,0.28168 0.293077,0.28168 z"
         style="font-weight:500;font-family:'Fira Code';-inkscape-font-specification:'Fira Code,  weight=450';text-align:center;text-anchor:middle"
         id="path3083" />
      <path
         d="m 66.587342,58.789204 q 0.08792,-0.117231 0.20841,-0.183987 0.120487,-0.06676 0.263769,-0.06676 0.226321,0 0.366347,0.112346 0.141653,0.110718 0.206782,0.314243 0.06676,0.201898 0.06676,0.475436 0,0.262141 -0.07815,0.467295 -0.07815,0.205154 -0.231205,0.322385 -0.151423,0.117231 -0.374487,0.117231 -0.288192,0 -0.452641,-0.213295 l -0.01954,0.169333 h -0.320756 v -2.409744 l 0.364718,-0.0407 z m 0.337038,1.279769 q 0.185616,0 0.286565,-0.151423 0.102576,-0.151423 0.102576,-0.475436 0,-0.330525 -0.09281,-0.475435 -0.09118,-0.146539 -0.260513,-0.146539 -0.122115,0 -0.216551,0.07327 -0.09281,0.07327 -0.156308,0.17259 v 0.804333 q 0.06024,0.09281 0.14491,0.146539 0.08629,0.0521 0.192128,0.0521 z"
         style="font-weight:500;font-family:'Fira Code';-inkscape-font-specification:'Fira Code,  weight=450';text-align:center;text-anchor:middle"
         id="path3085" />
      <path
         d="m 71.678742,58.761525 q 0,0.262141 -0.112346,0.426589 -0.112346,0.162821 -0.310987,0.239347 -0.197013,0.0749 -0.45427,0.0749 h -0.27191 v 0.801077 h -0.377743 v -2.246923 h 0.623602 q 0.423333,0 0.66268,0.174218 0.240974,0.17259 0.240974,0.530795 z m -0.397282,0.0033 q 0,-0.231205 -0.131885,-0.327269 -0.130256,-0.09769 -0.350064,-0.09769 h -0.270282 v 0.874346 h 0.275167 q 0.211666,0 0.343551,-0.09769 0.133513,-0.09769 0.133513,-0.351692 z"
         style="font-weight:500;font-family:'Fira Code';-inkscape-font-specification:'Fira Code,  weight=450';text-align:center;text-anchor:middle"
         id="path3087" />
      <path
         d="m 73.398128,59.88173 q 0,0.102577 0.03094,0.148167 0.03094,0.04559 0.09932,0.06838 l -0.08141,0.247487 q -0.127,-0.01465 -0.219807,-0.07001 -0.09118,-0.05536 -0.13677,-0.167705 -0.09443,0.120488 -0.239346,0.180731 -0.14491,0.05862 -0.309359,0.05862 -0.262141,0 -0.413564,-0.146539 -0.151423,-0.148167 -0.151423,-0.387513 0,-0.27191 0.211667,-0.418448 0.211667,-0.146539 0.605692,-0.146539 h 0.245859 v -0.112346 q 0,-0.167705 -0.100949,-0.239346 -0.100948,-0.07327 -0.281679,-0.07327 -0.08467,0 -0.205154,0.02279 -0.120487,0.02117 -0.252372,0.06676 l -0.08955,-0.257257 q 0.161192,-0.06024 0.315872,-0.08792 0.154679,-0.02931 0.286564,-0.02931 0.345179,0 0.514513,0.153051 0.170961,0.153051 0.170961,0.423333 z m -0.745718,0.197013 q 0.110718,0 0.216552,-0.05862 0.105833,-0.05862 0.170961,-0.164448 v -0.379372 h -0.201897 q -0.257257,0 -0.367975,0.08629 -0.110718,0.08467 -0.110718,0.234461 0,0.28168 0.293077,0.28168 z"
         style="font-weight:500;font-family:'Fira Code';-inkscape-font-specification:'Fira Code,  weight=450';text-align:center;text-anchor:middle"
         id="path3089" />
      <path
         d="m 75.485488,58.365871 0.09769,0.302846 q -0.102577,0.03419 -0.22632,0.04559 -0.122116,0.0114 -0.273539,0.0114 0.15468,0.06838 0.232834,0.175846 0.07815,0.105834 0.07815,0.260513 0,0.167705 -0.08141,0.29959 -0.08141,0.131885 -0.234461,0.206782 -0.151423,0.0749 -0.361462,0.0749 -0.0749,0 -0.130256,-0.0065 -0.05373,-0.0065 -0.105834,-0.02117 -0.07653,0.05047 -0.07653,0.141654 0,0.0521 0.04233,0.09118 0.04396,0.03745 0.17259,0.03745 h 0.29959 q 0.183987,0 0.324012,0.0635 0.141654,0.06187 0.221436,0.170962 0.08141,0.107461 0.08141,0.24423 0,0.257257 -0.221436,0.398911 -0.221436,0.141653 -0.638257,0.141653 -0.296333,0 -0.464038,-0.06024 -0.166077,-0.06024 -0.234462,-0.179103 -0.06838,-0.118859 -0.06838,-0.291449 h 0.327269 q 0,0.09118 0.03419,0.149795 0.03582,0.05862 0.131885,0.08629 0.09606,0.02931 0.276795,0.02931 0.268654,0 0.379371,-0.06676 0.110718,-0.06513 0.110718,-0.183988 0,-0.105833 -0.09118,-0.16282 -0.09118,-0.05536 -0.244231,-0.05536 H 74.54927 q -0.244231,0 -0.358205,-0.09932 -0.112346,-0.09932 -0.112346,-0.231205 0,-0.185615 0.192128,-0.310987 -0.154679,-0.08141 -0.226321,-0.197013 -0.07001,-0.117231 -0.07001,-0.283307 0,-0.182359 0.09118,-0.319129 0.09118,-0.136769 0.252372,-0.213295 0.16282,-0.07652 0.374487,-0.07652 0.206782,0.0016 0.34518,-0.02117 0.138397,-0.0228 0.240974,-0.06187 0.104205,-0.04071 0.206782,-0.09118 z m -0.789679,0.424961 q -0.174218,0 -0.262142,0.09932 -0.08792,0.09769 -0.08792,0.255628 0,0.162821 0.08955,0.262141 0.08955,0.09769 0.265397,0.09769 0.161192,0 0.245859,-0.09444 0.0863,-0.09444 0.0863,-0.268654 0,-0.351693 -0.337038,-0.351693 z"
         style="font-weight:500;font-family:'Fira Code';-inkscape-font-specification:'Fira Code,  weight=450';text-align:center;text-anchor:middle"
         id="path3091" />
      <path
         d="m 76.294708,59.560973 q 0.01628,0.265398 0.148166,0.384257 0.133513,0.118859 0.320757,0.118859 0.125372,0 0.232833,-0.03908 0.10909,-0.03908 0.21818,-0.110718 l 0.157935,0.218179 q -0.120487,0.09769 -0.281679,0.156308 -0.161192,0.05862 -0.345179,0.05862 -0.268654,0 -0.45427,-0.113975 -0.183987,-0.113974 -0.280051,-0.3175 -0.09444,-0.203525 -0.09444,-0.470551 0,-0.258885 0.09444,-0.46241 0.09444,-0.205154 0.270282,-0.324013 0.175846,-0.120487 0.420077,-0.120487 0.341923,0 0.540564,0.229577 0.200269,0.229576 0.200269,0.630115 0,0.04396 -0.0033,0.08792 -0.0016,0.04233 -0.0049,0.0749 z m 0.410307,-0.75223 q -0.170961,0 -0.283307,0.122115 -0.112346,0.122115 -0.128629,0.381 h 0.796193 q -0.0049,-0.242603 -0.104205,-0.372859 -0.09769,-0.130256 -0.280052,-0.130256 z"
         style="font-weight:500;font-family:'Fira Code';-inkscape-font-specification:'Fira Code,  weight=450';text-align:center;text-anchor:middle"
         id="path3093" />
      <path
         d="m 78.57094,60.067345 q 0.170962,0 0.27191,-0.06024 0.100949,-0.06187 0.100949,-0.169334 0,-0.07001 -0.02931,-0.118859 -0.02931,-0.04885 -0.11723,-0.09118 -0.08792,-0.04233 -0.267026,-0.08792 -0.169333,-0.04396 -0.297961,-0.104205 -0.127,-0.06024 -0.197013,-0.156308 -0.07001,-0.09606 -0.07001,-0.247487 0,-0.221436 0.183987,-0.356577 0.185615,-0.136769 0.503115,-0.136769 0.216552,0 0.377744,0.05699 0.161192,0.05699 0.275167,0.141654 l -0.153052,0.229577 q -0.100948,-0.06676 -0.221435,-0.10909 -0.118859,-0.04233 -0.268654,-0.04233 -0.174218,0 -0.250744,0.0521 -0.0749,0.0521 -0.0749,0.138397 0,0.06513 0.03745,0.107462 0.03908,0.04233 0.133513,0.07978 0.09444,0.03745 0.267026,0.08467 0.167705,0.04559 0.291449,0.107461 0.125371,0.06187 0.193756,0.164449 0.07001,0.100949 0.07001,0.263769 0,0.185616 -0.107462,0.304475 -0.107461,0.11723 -0.280051,0.174218 -0.17259,0.05536 -0.371231,0.05536 -0.239346,0 -0.413564,-0.06838 -0.174218,-0.07001 -0.293077,-0.174218 l 0.193757,-0.221436 q 0.100948,0.08141 0.231205,0.133513 0.130256,0.05047 0.281679,0.05047 z"
         style="font-weight:500;font-family:'Fira Code';-inkscape-font-specification:'Fira Code,  weight=450';text-align:center;text-anchor:middle"
         id="path3095" />
      <path
         d="m 83.307392,58.056512 0.127,2.246923 h -0.345179 l -0.05373,-1.094154 q -0.0114,-0.245859 -0.0098,-0.459154 0.0016,-0.214923 0.0081,-0.361461 l -0.330526,1.519115 H 82.37436 l -0.354949,-1.519115 q 0.0098,0.140025 0.01303,0.364718 0.0049,0.224692 -0.0033,0.459154 l -0.04396,1.090897 h -0.338667 l 0.127,-2.246923 h 0.452641 l 0.320757,1.50609 0.306102,-1.50609 z"
         style="font-weight:500;font-family:'Fira Code';-inkscape-font-specification:'Fira Code,  weight=450';text-align:center;text-anchor:middle"
         id="path3097" />
      <path
         d="m 85.121213,59.88173 q 0,0.102577 0.03094,0.148167 0.03093,0.04559 0.09932,0.06838 l -0.08141,0.247487 q -0.127,-0.01465 -0.219808,-0.07001 -0.09118,-0.05536 -0.136769,-0.167705 -0.09444,0.120488 -0.239346,0.180731 -0.14491,0.05862 -0.309359,0.05862 -0.262141,0 -0.413564,-0.146539 -0.151423,-0.148167 -0.151423,-0.387513 0,-0.27191 0.211666,-0.418448 0.211667,-0.146539 0.605693,-0.146539 h 0.245859 v -0.112346 q 0,-0.167705 -0.100949,-0.239346 -0.100949,-0.07327 -0.28168,-0.07327 -0.08467,0 -0.205153,0.02279 -0.120488,0.02117 -0.252372,0.06676 l -0.08955,-0.257257 q 0.161193,-0.06024 0.315872,-0.08792 0.15468,-0.02931 0.286564,-0.02931 0.34518,0 0.514513,0.153051 0.170962,0.153051 0.170962,0.423333 z m -0.745718,0.197013 q 0.110718,0 0.216551,-0.05862 0.105833,-0.05862 0.170962,-0.164448 V 59.476307 H 84.56111 q -0.257256,0 -0.367974,0.08629 -0.110718,0.08467 -0.110718,0.234461 0,0.28168 0.293077,0.28168 z"
         style="font-weight:500;font-family:'Fira Code';-inkscape-font-specification:'Fira Code,  weight=450';text-align:center;text-anchor:middle"
         id="path3099" />
      <path
         d="M 85.761099,60.303435 V 58.58405 h 0.314244 l 0.02768,0.223064 q 0.107462,-0.130256 0.254,-0.198641 0.146539,-0.07001 0.301218,-0.07001 0.240974,0 0.359833,0.135141 0.120488,0.135141 0.120488,0.376115 v 1.253718 H 86.773844 V 59.23045 q 0,-0.223064 -0.04559,-0.3175 -0.04396,-0.09606 -0.200269,-0.09606 -0.125372,0 -0.229577,0.07815 -0.102577,0.07653 -0.17259,0.174217 v 1.23418 z"
         style="font-weight:500;font-family:'Fira Code';-inkscape-font-specification:'Fira Code,  weight=450';text-align:center;text-anchor:middle"
         id="path3101" />
      <path
         d="m 88.079665,58.58405 v 1.201616 q 0,0.153051 0.06024,0.218179 0.06187,0.06513 0.185616,0.06513 0.117231,0 0.22632,-0.07001 0.10909,-0.07001 0.17259,-0.170962 V 58.58405 h 0.364718 v 1.719385 h -0.314244 l -0.02279,-0.219808 q -0.09607,0.128628 -0.242603,0.197013 -0.146538,0.06676 -0.29959,0.06676 -0.250743,0 -0.372859,-0.13677 -0.122115,-0.138397 -0.122115,-0.379372 V 58.58405 Z"
         style="font-weight:500;font-family:'Fira Code';-inkscape-font-specification:'Fira Code,  weight=450';text-align:center;text-anchor:middle"
         id="path3103" />
      <path
         d="m 90.982756,59.88173 q 0,0.102577 0.03094,0.148167 0.03094,0.04559 0.09932,0.06838 l -0.08141,0.247487 q -0.127,-0.01465 -0.219808,-0.07001 -0.09118,-0.05536 -0.136769,-0.167705 -0.09444,0.120488 -0.239347,0.180731 -0.14491,0.05862 -0.309359,0.05862 -0.262141,0 -0.413564,-0.146539 -0.151423,-0.148167 -0.151423,-0.387513 0,-0.27191 0.211667,-0.418448 0.211667,-0.146539 0.605692,-0.146539 h 0.245859 v -0.112346 q 0,-0.167705 -0.100948,-0.239346 -0.100949,-0.07327 -0.28168,-0.07327 -0.08467,0 -0.205154,0.02279 -0.120487,0.02117 -0.252372,0.06676 l -0.08955,-0.257257 q 0.161192,-0.06024 0.315872,-0.08792 0.154679,-0.02931 0.286564,-0.02931 0.345179,0 0.514513,0.153051 0.170961,0.153051 0.170961,0.423333 z m -0.745718,0.197013 q 0.110718,0 0.216552,-0.05862 0.105833,-0.05862 0.170961,-0.164448 v -0.379372 h -0.201897 q -0.257257,0 -0.367975,0.08629 -0.110718,0.08467 -0.110718,0.234461 0,0.28168 0.293077,0.28168 z"
         style="font-weight:500;font-family:'Fira Code';-inkscape-font-specification:'Fira Code,  weight=450';text-align:center;text-anchor:middle"
         id="path3105" />
      <path
         d="m 92.378128,57.893691 v 1.940821 q 0,0.118859 0.07164,0.169333 0.07327,0.04885 0.188872,0.04885 0.07327,0 0.140025,-0.01465 0.06838,-0.01628 0.131885,-0.04233 l 0.09281,0.254 q -0.07653,0.03908 -0.188872,0.06838 -0.110718,0.02931 -0.254,0.02931 -0.258885,0 -0.403795,-0.146539 -0.143282,-0.146538 -0.143282,-0.39891 v -1.639603 h -0.519397 v -0.268654 z"
         style="font-weight:500;font-family:'Fira Code';-inkscape-font-specification:'Fira Code,  weight=450';text-align:center;text-anchor:middle"
         id="path3107" />
      <path
         d="m 96.575644,57.852986 q 0.157936,0 0.28168,0.02768 0.125372,0.02605 0.231205,0.07164 l -0.107462,0.252372 q -0.08629,-0.03582 -0.18073,-0.0521 -0.09281,-0.01628 -0.188872,-0.01628 -0.332154,0 -0.332154,0.267026 v 0.304474 h 0.574756 l -0.03908,0.268654 h -0.535679 v 1.326987 h -0.36309 v -1.326987 h -0.390769 v -0.268654 h 0.390769 v -0.307731 q 0,-0.244231 0.180731,-0.395654 0.180731,-0.151423 0.478692,-0.151423 z"
         style="font-weight:500;font-family:'Fira Code';-inkscape-font-specification:'Fira Code,  weight=450';text-align:center;text-anchor:middle"
         id="path3109" />
      <path
         d="m 98.172917,58.538461 q 0.377744,0 0.576385,0.245859 0.198641,0.245859 0.198641,0.656166 0,0.273539 -0.09118,0.477064 -0.08955,0.203526 -0.263769,0.3175 -0.17259,0.112347 -0.421705,0.112347 -0.376115,0 -0.576385,-0.242603 -0.200269,-0.244231 -0.200269,-0.661051 0,-0.267026 0.08955,-0.470552 0.09118,-0.205153 0.265398,-0.319128 0.174218,-0.115602 0.423334,-0.115602 z m 0,0.283307 q -0.197013,0 -0.296333,0.151423 -0.09932,0.149795 -0.09932,0.470552 0,0.320756 0.09769,0.472179 0.09932,0.149795 0.296333,0.149795 0.197013,0 0.294705,-0.151423 0.09932,-0.151423 0.09932,-0.473808 0,-0.3175 -0.09769,-0.467295 -0.09769,-0.151423 -0.294705,-0.151423 z"
         style="font-weight:500;font-family:'Fira Code';-inkscape-font-specification:'Fira Code,  weight=450';text-align:center;text-anchor:middle"
         id="path3111" />
      <path
         d="m 99.454314,60.303435 v -0.260513 h 0.252372 V 58.842935 H 99.454314 V 58.58405 h 0.530795 l 0.06676,0.398911 q 0.0961,-0.216552 0.23771,-0.328898 0.14329,-0.113974 0.36798,-0.113974 0.0765,0 0.13677,0.01302 0.0619,0.0114 0.12211,0.03094 l -0.0619,0.633372 h -0.26051 v -0.350064 q -0.18236,0.0065 -0.31425,0.146539 -0.13188,0.138397 -0.20841,0.390769 v 0.638256 h 0.34681 v 0.260513 z"
         style="font-weight:500;font-family:'Fira Code';-inkscape-font-specification:'Fira Code,  weight=450';text-align:center;text-anchor:middle"
         id="path3113" />
      <path
         d="m 64.72793,64.291735 q -0.09444,0.06024 -0.226321,0.09769 -0.131884,0.03745 -0.275166,0.03745 -0.29959,0 -0.455898,-0.15468 -0.154679,-0.156307 -0.154679,-0.410307 V 62.928927 H 63.233237 V 62.66353 h 0.382629 v -0.384257 l 0.364718,-0.04396 v 0.428218 h 0.579641 l -0.04071,0.265397 H 63.98058 v 0.929705 q 0,0.138398 0.06838,0.206782 0.07001,0.06676 0.227949,0.06676 0.09444,0 0.17259,-0.0228 0.07978,-0.0228 0.146538,-0.05862 z"
         style="font-weight:500;font-family:'Fira Code';-inkscape-font-specification:'Fira Code,  weight=450';text-align:center;text-anchor:middle"
         id="path3115" />
      <path
         d="m 65.610418,61.93735 v 0.936218 q 0.104205,-0.127 0.242603,-0.1905 0.140026,-0.06513 0.28982,-0.06513 0.242603,0 0.361462,0.135141 0.118859,0.135141 0.118859,0.376115 v 1.253718 h -0.364718 v -1.196731 q 0,-0.154679 -0.05862,-0.221435 -0.05862,-0.06838 -0.188872,-0.06838 -0.122116,0 -0.226321,0.07978 -0.104205,0.07815 -0.174218,0.177474 v 1.229295 H 65.2457 v -2.406487 z"
         style="font-weight:500;font-family:'Fira Code';-inkscape-font-specification:'Fira Code,  weight=450';text-align:center;text-anchor:middle"
         id="path3117" />
      <path
         d="m 67.885022,61.821748 q 0.107462,0 0.17259,0.06513 0.06676,0.06513 0.06676,0.16282 0,0.09769 -0.06676,0.164449 -0.06513,0.06676 -0.17259,0.06676 -0.104205,0 -0.170961,-0.06676 -0.06676,-0.06676 -0.06676,-0.164449 0,-0.09769 0.06676,-0.16282 0.06676,-0.06513 0.170961,-0.06513 z m 0.254,0.841782 v 1.452359 h 0.467295 v 0.267025 h -1.346526 v -0.267025 h 0.514513 v -1.185334 h -0.49823 V 62.66353 Z"
         style="font-weight:500;font-family:'Fira Code';-inkscape-font-specification:'Fira Code,  weight=450';text-align:center;text-anchor:middle"
         id="path3119" />
      <path
         d="m 69.778626,64.146824 q 0.170962,0 0.271911,-0.06024 0.100948,-0.06187 0.100948,-0.169333 0,-0.07001 -0.02931,-0.118859 -0.02931,-0.04885 -0.117231,-0.09118 -0.08792,-0.04233 -0.267026,-0.08792 -0.169333,-0.04396 -0.297961,-0.104205 -0.127,-0.06024 -0.197013,-0.156308 -0.07001,-0.09606 -0.07001,-0.247487 0,-0.221436 0.183987,-0.356577 0.185616,-0.136769 0.503116,-0.136769 0.216551,0 0.377743,0.05699 0.161192,0.05699 0.275167,0.141654 l -0.153051,0.229577 q -0.100949,-0.06676 -0.221436,-0.10909 -0.118859,-0.04233 -0.268654,-0.04233 -0.174218,0 -0.250744,0.0521 -0.0749,0.0521 -0.0749,0.138398 0,0.06513 0.03745,0.107461 0.03908,0.04233 0.133513,0.07978 0.09444,0.03745 0.267026,0.08467 0.167705,0.04559 0.291449,0.107462 0.125371,0.06187 0.193756,0.164448 0.07001,0.100949 0.07001,0.263769 0,0.185616 -0.107462,0.304475 -0.107461,0.117231 -0.280051,0.174218 -0.17259,0.05536 -0.371231,0.05536 -0.239346,0 -0.413564,-0.06838 -0.174218,-0.07001 -0.293077,-0.174218 l 0.193757,-0.221436 q 0.100948,0.08141 0.231205,0.133513 0.130256,0.05047 0.281679,0.05047 z"
         style="font-weight:500;font-family:'Fira Code';-inkscape-font-specification:'Fira Code,  weight=450';text-align:center;text-anchor:middle"
         id="path3121" />
      <path
         d="m 74.550898,62.785645 q 0,0.249115 -0.148167,0.402167 -0.148166,0.153051 -0.363089,0.216551 l 0.636628,0.978551 h -0.439616 l -0.564987,-0.92482 h -0.245859 v 0.92482 h -0.377743 v -2.246923 h 0.626859 q 0.431474,0 0.65291,0.162821 0.223064,0.161192 0.223064,0.486833 z m -0.395654,0 q 0,-0.195385 -0.113974,-0.28168 -0.113975,-0.08792 -0.34518,-0.08792 h -0.270282 v 0.765257 h 0.278423 q 0.214923,0 0.332154,-0.09118 0.118859,-0.09281 0.118859,-0.304474 z"
         style="font-weight:500;font-family:'Fira Code';-inkscape-font-specification:'Fira Code,  weight=450';text-align:center;text-anchor:middle"
         id="path3123" />
      <path
         d="m 75.317784,63.640453 q 0.01628,0.265397 0.148167,0.384256 0.133513,0.118859 0.320756,0.118859 0.125372,0 0.232834,-0.03908 0.10909,-0.03908 0.218179,-0.110718 l 0.157936,0.21818 q -0.120487,0.09769 -0.281679,0.156307 -0.161193,0.05862 -0.34518,0.05862 -0.268654,0 -0.454269,-0.113975 -0.183987,-0.113974 -0.280051,-0.3175 -0.09444,-0.203525 -0.09444,-0.470551 0,-0.258885 0.09444,-0.46241 0.09444,-0.205154 0.270282,-0.324013 0.175846,-0.120487 0.420077,-0.120487 0.341923,0 0.540564,0.229577 0.200269,0.229577 0.200269,0.630115 0,0.04396 -0.0033,0.08792 -0.0016,0.04233 -0.0049,0.0749 z m 0.410308,-0.752231 q -0.170961,0 -0.283308,0.122115 -0.112346,0.122116 -0.128628,0.381 h 0.796192 q -0.0049,-0.242602 -0.104205,-0.372859 -0.09769,-0.130256 -0.280051,-0.130256 z"
         style="font-weight:500;font-family:'Fira Code';-inkscape-font-specification:'Fira Code,  weight=450';text-align:center;text-anchor:middle"
         id="path3125" />
      <path
         d="m 77.807311,62.61794 q 0.227949,0 0.364718,0.112346 0.136769,0.110718 0.198641,0.314244 0.06187,0.201897 0.06187,0.475435 0,0.262141 -0.0749,0.467295 -0.0749,0.205154 -0.223064,0.322385 -0.146538,0.117231 -0.364718,0.117231 -0.270282,0 -0.436359,-0.1905 v 0.807589 l -0.364718,0.04071 V 62.66353 h 0.3175 l 0.02279,0.221435 q 0.09769,-0.131884 0.226321,-0.198641 0.128628,-0.06838 0.27191,-0.06838 z m -0.100949,0.281679 q -0.122115,0 -0.216551,0.07327 -0.09281,0.07327 -0.156308,0.172589 v 0.804334 q 0.128628,0.192128 0.340295,0.192128 0.183987,0 0.280051,-0.148167 0.09606,-0.148167 0.09606,-0.472179 0,-0.330526 -0.0863,-0.475436 -0.08467,-0.146539 -0.257256,-0.146539 z"
         style="font-weight:500;font-family:'Fira Code';-inkscape-font-specification:'Fira Code,  weight=450';text-align:center;text-anchor:middle"
         id="path3127" />
      <path
         d="m 79.611364,62.61794 q 0.377743,0 0.576384,0.245859 0.198641,0.245859 0.198641,0.656166 0,0.273539 -0.09118,0.477065 -0.08955,0.203525 -0.263769,0.3175 -0.17259,0.112346 -0.421705,0.112346 -0.376116,0 -0.576385,-0.242603 -0.200269,-0.244231 -0.200269,-0.661051 0,-0.267026 0.08955,-0.470551 0.09118,-0.205154 0.265397,-0.319129 0.174218,-0.115602 0.423334,-0.115602 z m 0,0.283308 q -0.197013,0 -0.296334,0.151423 -0.09932,0.149794 -0.09932,0.470551 0,0.320756 0.09769,0.472179 0.09932,0.149795 0.296334,0.149795 0.197012,0 0.294705,-0.151423 0.09932,-0.151423 0.09932,-0.473808 0,-0.3175 -0.09769,-0.467294 -0.09769,-0.151423 -0.294705,-0.151423 z"
         style="font-weight:500;font-family:'Fira Code';-inkscape-font-specification:'Fira Code,  weight=450';text-align:center;text-anchor:middle"
         id="path3129" />
      <path
         d="m 81.501711,64.146824 q 0.170961,0 0.27191,-0.06024 0.100949,-0.06187 0.100949,-0.169333 0,-0.07001 -0.02931,-0.118859 -0.02931,-0.04885 -0.117231,-0.09118 -0.08792,-0.04233 -0.267025,-0.08792 -0.169334,-0.04396 -0.297962,-0.104205 -0.127,-0.06024 -0.197013,-0.156308 -0.07001,-0.09606 -0.07001,-0.247487 0,-0.221436 0.183988,-0.356577 0.185615,-0.136769 0.503115,-0.136769 0.216551,0 0.377744,0.05699 0.161192,0.05699 0.275166,0.141654 l -0.153051,0.229577 q -0.100949,-0.06676 -0.221436,-0.10909 -0.118859,-0.04233 -0.268654,-0.04233 -0.174218,0 -0.250743,0.0521 -0.0749,0.0521 -0.0749,0.138398 0,0.06513 0.03745,0.107461 0.03908,0.04233 0.133513,0.07978 0.09444,0.03745 0.267025,0.08467 0.167706,0.04559 0.291449,0.107462 0.125372,0.06187 0.193757,0.164448 0.07001,0.100949 0.07001,0.263769 0,0.185616 -0.107461,0.304475 -0.107462,0.117231 -0.280051,0.174218 -0.17259,0.05536 -0.371231,0.05536 -0.239346,0 -0.413564,-0.06838 -0.174218,-0.07001 -0.293077,-0.174218 l 0.193756,-0.221436 q 0.100949,0.08141 0.231205,0.133513 0.130257,0.05047 0.28168,0.05047 z"
         style="font-weight:500;font-family:'Fira Code';-inkscape-font-specification:'Fira Code,  weight=450';text-align:center;text-anchor:middle"
         id="path3131" />
      <path
         d="m 83.515802,61.821748 q 0.107462,0 0.17259,0.06513 0.06676,0.06513 0.06676,0.16282 0,0.09769 -0.06676,0.164449 -0.06513,0.06676 -0.17259,0.06676 -0.104205,0 -0.170961,-0.06676 -0.06676,-0.06676 -0.06676,-0.164449 0,-0.09769 0.06676,-0.16282 0.06676,-0.06513 0.170961,-0.06513 z m 0.254,0.841782 v 1.452359 h 0.467295 v 0.267025 h -1.346526 v -0.267025 h 0.514513 v -1.185334 h -0.49823 V 62.66353 Z"
         style="font-weight:500;font-family:'Fira Code';-inkscape-font-specification:'Fira Code,  weight=450';text-align:center;text-anchor:middle"
         id="path3133" />
      <path
         d="m 86.220253,64.291735 q -0.09444,0.06024 -0.226321,0.09769 -0.131884,0.03745 -0.275167,0.03745 -0.299589,0 -0.455897,-0.15468 -0.154679,-0.156307 -0.154679,-0.410307 V 62.928927 H 84.72556 V 62.66353 h 0.382629 v -0.384257 l 0.364718,-0.04396 v 0.428218 h 0.579641 l -0.04071,0.265397 h -0.538935 v 0.929705 q 0,0.138398 0.06838,0.206782 0.07001,0.06676 0.227949,0.06676 0.09444,0 0.17259,-0.0228 0.07978,-0.0228 0.146538,-0.05862 z"
         style="font-weight:500;font-family:'Fira Code';-inkscape-font-specification:'Fira Code,  weight=450';text-align:center;text-anchor:middle"
         id="path3135" />
      <path
         d="m 87.426754,62.61794 q 0.377744,0 0.576385,0.245859 0.198641,0.245859 0.198641,0.656166 0,0.273539 -0.09118,0.477065 -0.08955,0.203525 -0.26377,0.3175 -0.172589,0.112346 -0.421705,0.112346 -0.376115,0 -0.576384,-0.242603 -0.20027,-0.244231 -0.20027,-0.661051 0,-0.267026 0.08955,-0.470551 0.09118,-0.205154 0.265397,-0.319129 0.174218,-0.115602 0.423333,-0.115602 z m 0,0.283308 q -0.197012,0 -0.296333,0.151423 -0.09932,0.149794 -0.09932,0.470551 0,0.320756 0.09769,0.472179 0.09932,0.149795 0.296333,0.149795 0.197013,0 0.294705,-0.151423 0.09932,-0.151423 0.09932,-0.473808 0,-0.3175 -0.09769,-0.467294 -0.09769,-0.151423 -0.294706,-0.151423 z"
         style="font-weight:500;font-family:'Fira Code';-inkscape-font-specification:'Fira Code,  weight=450';text-align:center;text-anchor:middle"
         id="path3137" />
      <path
         d="m 88.708154,64.382914 v -0.260513 h 0.252371 V 62.922414 H 88.708154 V 62.66353 h 0.530794 l 0.06676,0.39891 q 0.09606,-0.216551 0.237718,-0.328898 0.143282,-0.113974 0.367974,-0.113974 0.07653,0 0.136769,0.01303 0.06187,0.0114 0.122116,0.03094 l -0.06187,0.633371 h -0.260513 v -0.350064 q -0.182359,0.0065 -0.314243,0.146539 -0.131885,0.138397 -0.208411,0.390769 v 0.638256 h 0.346808 v 0.260513 z"
         style="font-weight:500;font-family:'Fira Code';-inkscape-font-specification:'Fira Code,  weight=450';text-align:center;text-anchor:middle"
         id="path3139" />
      <path
         d="m 92.150179,62.66353 -0.592667,1.725897 q -0.06676,0.195385 -0.170961,0.345179 -0.104205,0.149795 -0.267026,0.239347 -0.16282,0.09118 -0.403795,0.112346 L 90.66851,64.81276 q 0.174218,-0.02768 0.276795,-0.08141 0.104205,-0.0521 0.164449,-0.138397 0.06187,-0.08467 0.10909,-0.210039 H 91.095102 L 90.515461,62.66353 h 0.387513 l 0.433102,1.465384 0.439616,-1.465384 z"
         style="font-weight:500;font-family:'Fira Code';-inkscape-font-specification:'Fira Code,  weight=450';text-align:center;text-anchor:middle"
         id="path3141" />
      <path
         d="m 93.480424,62.135991 -0.04233,1.473526 h -0.309359 l -0.04559,-1.473526 z M 93.28504,63.93353 q 0.104205,0 0.175846,0.07327 0.07164,0.07164 0.07164,0.17259 0,0.102576 -0.07164,0.175846 -0.07164,0.07164 -0.175846,0.07164 -0.104205,0 -0.175846,-0.07164 -0.07001,-0.07327 -0.07001,-0.175846 0,-0.100949 0.07001,-0.17259 0.07164,-0.07327 0.175846,-0.07327 z"
         style="font-weight:500;font-family:'Fira Code';-inkscape-font-specification:'Fira Code,  weight=450';text-align:center;text-anchor:middle"
         id="path3143" />
    </g>
  </g>
</svg>
