<?xml version="1.0" encoding="utf-8" standalone="no"?>
<!DOCTYPE svg PUBLIC "-//W3C//DTD SVG 1.1//EN"
  "http://www.w3.org/Graphics/SVG/1.1/DTD/svg11.dtd">
<svg xmlns:xlink="http://www.w3.org/1999/xlink" width="619.680655pt" height="430.512666pt" viewBox="0 0 619.680655 430.512666" xmlns="http://www.w3.org/2000/svg" version="1.1">
 <metadata>
  <rdf:RDF xmlns:dc="http://purl.org/dc/elements/1.1/" xmlns:cc="http://creativecommons.org/ns#" xmlns:rdf="http://www.w3.org/1999/02/22-rdf-syntax-ns#">
   <cc:Work>
    <dc:type rdf:resource="http://purl.org/dc/dcmitype/StillImage"/>
    <dc:date>2023-01-16T16:54:55.959880</dc:date>
    <dc:format>image/svg+xml</dc:format>
    <dc:creator>
     <cc:Agent>
      <dc:title>Matplotlib v3.6.2, https://matplotlib.org/</dc:title>
     </cc:Agent>
    </dc:creator>
   </cc:Work>
  </rdf:RDF>
 </metadata>
 <defs>
  <style type="text/css">*{stroke-linejoin: round; stroke-linecap: butt}</style>
 </defs>
 <g id="figure_1">
  <g id="patch_1">
   <path d="M 0 430.512666 
L 619.680655 430.512666 
L 619.680655 0 
L 0 0 
z
" style="fill: #ffffff"/>
  </g>
  <g id="axes_1">
   <g id="patch_2">
    <path d="M 54.480655 355.021875 
L 612.480655 355.021875 
L 612.480655 22.381875 
L 54.480655 22.381875 
z
" style="fill: #ffffff"/>
   </g>
   <g id="patch_3">
    <path d="M 58.2852 355.021875 
L 101.403382 355.021875 
L 101.403382 131.884484 
L 58.2852 131.884484 
z
" clip-path="url(#p9836217e27)" style="fill: #377e22"/>
   </g>
   <g id="patch_4">
    <path d="M 109.012473 355.021875 
L 152.130655 355.021875 
L 152.130655 134.346884 
L 109.012473 134.346884 
z
" clip-path="url(#p9836217e27)" style="fill: #377e22"/>
   </g>
   <g id="patch_5">
    <path d="M 159.739746 355.021875 
L 202.857928 355.021875 
L 202.857928 83.1669 
L 159.739746 83.1669 
z
" clip-path="url(#p9836217e27)" style="fill: #377e22"/>
   </g>
   <g id="patch_6">
    <path d="M 210.467019 355.021875 
L 253.5852 355.021875 
L 253.5852 134.913041 
L 210.467019 134.913041 
z
" clip-path="url(#p9836217e27)" style="fill: #377e22"/>
   </g>
   <g id="patch_7">
    <path d="M 261.194291 355.021875 
L 304.312473 355.021875 
L 304.312473 73.069875 
L 261.194291 73.069875 
z
" clip-path="url(#p9836217e27)" style="fill: #377e22"/>
   </g>
   <g id="patch_8">
    <path d="M 311.921564 355.021875 
L 355.039746 355.021875 
L 355.039746 133.985506 
L 311.921564 133.985506 
z
" clip-path="url(#p9836217e27)" style="fill: #377e22"/>
   </g>
   <g id="patch_9">
    <path d="M 362.648837 355.021875 
L 405.767019 355.021875 
L 405.767019 133.174119 
L 362.648837 133.174119 
z
" clip-path="url(#p9836217e27)" style="fill: #377e22"/>
   </g>
   <g id="patch_10">
    <path d="M 413.37611 355.021875 
L 456.494291 355.021875 
L 456.494291 142.579522 
L 413.37611 142.579522 
z
" clip-path="url(#p9836217e27)" style="fill: #377e22"/>
   </g>
   <g id="patch_11">
    <path d="M 464.103382 355.021875 
L 507.221564 355.021875 
L 507.221564 133.110778 
L 464.103382 133.110778 
z
" clip-path="url(#p9836217e27)" style="fill: #377e22"/>
   </g>
   <g id="patch_12">
    <path d="M 514.830655 355.021875 
L 557.948837 355.021875 
L 557.948837 149.447057 
L 514.830655 149.447057 
z
" clip-path="url(#p9836217e27)" style="fill: #377e22"/>
   </g>
   <g id="patch_13">
    <path d="M 565.557928 355.021875 
L 608.67611 355.021875 
L 608.67611 130.882689 
L 565.557928 130.882689 
z
" clip-path="url(#p9836217e27)" style="fill: #377e22"/>
   </g>
   <g id="patch_14">
    <path d="M 58.2852 131.884484 
L 101.403382 131.884484 
L 101.403382 85.053179 
L 58.2852 85.053179 
z
" clip-path="url(#p9836217e27)" style="fill: #75fbfd"/>
   </g>
   <g id="patch_15">
    <path d="M 109.012473 134.346884 
L 152.130655 134.346884 
L 152.130655 86.199613 
L 109.012473 86.199613 
z
" clip-path="url(#p9836217e27)" style="fill: #75fbfd"/>
   </g>
   <g id="patch_16">
    <path d="M 159.739746 83.1669 
L 202.857928 83.1669 
L 202.857928 55.388377 
L 159.739746 55.388377 
z
" clip-path="url(#p9836217e27)" style="fill: #75fbfd"/>
   </g>
   <g id="patch_17">
    <path d="M 210.467019 134.913041 
L 253.5852 134.913041 
L 253.5852 85.937776 
L 210.467019 85.937776 
z
" clip-path="url(#p9836217e27)" style="fill: #75fbfd"/>
   </g>
   <g id="patch_18">
    <path d="M 261.194291 73.069875 
L 304.312473 73.069875 
L 304.312473 51.527475 
L 261.194291 51.527475 
z
" clip-path="url(#p9836217e27)" style="fill: #75fbfd"/>
   </g>
   <g id="patch_19">
    <path d="M 311.921564 133.985506 
L 355.039746 133.985506 
L 355.039746 86.479603 
L 311.921564 86.479603 
z
" clip-path="url(#p9836217e27)" style="fill: #75fbfd"/>
   </g>
   <g id="patch_20">
    <path d="M 362.648837 133.174119 
L 405.767019 133.174119 
L 405.767019 85.610241 
L 362.648837 85.610241 
z
" clip-path="url(#p9836217e27)" style="fill: #75fbfd"/>
   </g>
   <g id="patch_21">
    <path d="M 413.37611 142.579522 
L 456.494291 142.579522 
L 456.494291 90.814816 
L 413.37611 90.814816 
z
" clip-path="url(#p9836217e27)" style="fill: #75fbfd"/>
   </g>
   <g id="patch_22">
    <path d="M 464.103382 133.110778 
L 507.221564 133.110778 
L 507.221564 85.666327 
L 464.103382 85.666327 
z
" clip-path="url(#p9836217e27)" style="fill: #75fbfd"/>
   </g>
   <g id="patch_23">
    <path d="M 514.830655 149.447057 
L 557.948837 149.447057 
L 557.948837 88.848509 
L 514.830655 88.848509 
z
" clip-path="url(#p9836217e27)" style="fill: #75fbfd"/>
   </g>
   <g id="patch_24">
    <path d="M 565.557928 130.882689 
L 608.67611 130.882689 
L 608.67611 84.162832 
L 565.557928 84.162832 
z
" clip-path="url(#p9836217e27)" style="fill: #75fbfd"/>
   </g>
   <g id="patch_25">
    <path d="M 58.2852 85.053179 
L 101.403382 85.053179 
L 101.403382 38.221875 
L 58.2852 38.221875 
z
" clip-path="url(#p9836217e27)" style="fill: #0000f5"/>
   </g>
   <g id="patch_26">
    <path d="M 109.012473 86.199613 
L 152.130655 86.199613 
L 152.130655 38.221875 
L 109.012473 38.221875 
z
" clip-path="url(#p9836217e27)" style="fill: #0000f5"/>
   </g>
   <g id="patch_27">
    <path d="M 159.739746 55.388377 
L 202.857928 55.388377 
L 202.857928 38.221875 
L 159.739746 38.221875 
z
" clip-path="url(#p9836217e27)" style="fill: #0000f5"/>
   </g>
   <g id="patch_28">
    <path d="M 210.467019 85.937776 
L 253.5852 85.937776 
L 253.5852 38.221875 
L 210.467019 38.221875 
z
" clip-path="url(#p9836217e27)" style="fill: #0000f5"/>
   </g>
   <g id="patch_29">
    <path d="M 261.194291 51.527475 
L 304.312473 51.527475 
L 304.312473 38.221875 
L 261.194291 38.221875 
z
" clip-path="url(#p9836217e27)" style="fill: #0000f5"/>
   </g>
   <g id="patch_30">
    <path d="M 311.921564 86.479603 
L 355.039746 86.479603 
L 355.039746 38.221875 
L 311.921564 38.221875 
z
" clip-path="url(#p9836217e27)" style="fill: #0000f5"/>
   </g>
   <g id="patch_31">
    <path d="M 362.648837 85.610241 
L 405.767019 85.610241 
L 405.767019 38.221875 
L 362.648837 38.221875 
z
" clip-path="url(#p9836217e27)" style="fill: #0000f5"/>
   </g>
   <g id="patch_32">
    <path d="M 413.37611 90.814816 
L 456.494291 90.814816 
L 456.494291 38.221875 
L 413.37611 38.221875 
z
" clip-path="url(#p9836217e27)" style="fill: #0000f5"/>
   </g>
   <g id="patch_33">
    <path d="M 464.103382 85.666327 
L 507.221564 85.666327 
L 507.221564 38.221875 
L 464.103382 38.221875 
z
" clip-path="url(#p9836217e27)" style="fill: #0000f5"/>
   </g>
   <g id="patch_34">
    <path d="M 514.830655 88.848509 
L 557.948837 88.848509 
L 557.948837 38.221875 
L 514.830655 38.221875 
z
" clip-path="url(#p9836217e27)" style="fill: #0000f5"/>
   </g>
   <g id="patch_35">
    <path d="M 565.557928 84.162832 
L 608.67611 84.162832 
L 608.67611 38.221875 
L 565.557928 38.221875 
z
" clip-path="url(#p9836217e27)" style="fill: #0000f5"/>
   </g>
   <g id="matplotlib.axis_1">
    <g id="xtick_1">
     <g id="line2d_1">
      <defs>
       <path id="md404ef3239" d="M 0 0 
L 0 3.5 
" style="stroke: #000000; stroke-width: 0.8"/>
      </defs>
      <g>
       <use xlink:href="#md404ef3239" x="79.844291" y="355.021875" style="stroke: #000000; stroke-width: 0.8"/>
      </g>
     </g>
     <g id="text_1">
      <!-- &lt;UNANNOTATED&gt; -->
      <g transform="translate(11.025781 407.780354) rotate(-30) scale(0.1 -0.1)">
       <defs>
        <path id="DejaVuSansMono-3c" d="M 3578 3003 
L 922 2003 
L 3578 1013 
L 3578 441 
L 275 1747 
L 275 2266 
L 3578 3572 
L 3578 3003 
z
" transform="scale(0.015625)"/>
        <path id="DejaVuSansMono-55" d="M 459 1791 
L 459 4666 
L 1094 4666 
L 1094 1503 
Q 1094 1163 1112 1017 
Q 1131 872 1178 794 
Q 1278 609 1467 515 
Q 1656 422 1925 422 
Q 2197 422 2384 515 
Q 2572 609 2675 794 
Q 2722 872 2740 1015 
Q 2759 1159 2759 1497 
L 2759 4666 
L 3391 4666 
L 3391 1791 
Q 3391 1075 3302 773 
Q 3213 472 2994 275 
Q 2788 91 2522 0 
Q 2256 -91 1925 -91 
Q 1597 -91 1331 0 
Q 1066 91 856 275 
Q 641 469 550 776 
Q 459 1084 459 1791 
z
" transform="scale(0.015625)"/>
        <path id="DejaVuSansMono-4e" d="M 434 4666 
L 1234 4666 
L 2809 825 
L 2809 4666 
L 3419 4666 
L 3419 0 
L 2619 0 
L 1044 3841 
L 1044 0 
L 434 0 
L 434 4666 
z
" transform="scale(0.015625)"/>
        <path id="DejaVuSansMono-41" d="M 1925 4109 
L 1259 1722 
L 2591 1722 
L 1925 4109 
z
M 1544 4666 
L 2309 4666 
L 3738 0 
L 3084 0 
L 2741 1216 
L 1106 1216 
L 769 0 
L 116 0 
L 1544 4666 
z
" transform="scale(0.015625)"/>
        <path id="DejaVuSansMono-4f" d="M 2828 2328 
Q 2828 3356 2617 3797 
Q 2406 4238 1925 4238 
Q 1447 4238 1236 3797 
Q 1025 3356 1025 2328 
Q 1025 1303 1236 862 
Q 1447 422 1925 422 
Q 2406 422 2617 861 
Q 2828 1300 2828 2328 
z
M 3488 2328 
Q 3488 1109 3102 509 
Q 2716 -91 1925 -91 
Q 1134 -91 750 506 
Q 366 1103 366 2328 
Q 366 3550 752 4150 
Q 1138 4750 1925 4750 
Q 2716 4750 3102 4150 
Q 3488 3550 3488 2328 
z
" transform="scale(0.015625)"/>
        <path id="DejaVuSansMono-54" d="M 147 4666 
L 3706 4666 
L 3706 4134 
L 2247 4134 
L 2247 0 
L 1613 0 
L 1613 4134 
L 147 4134 
L 147 4666 
z
" transform="scale(0.015625)"/>
        <path id="DejaVuSansMono-45" d="M 616 4666 
L 3384 4666 
L 3384 4134 
L 1247 4134 
L 1247 2753 
L 3291 2753 
L 3291 2222 
L 1247 2222 
L 1247 531 
L 3444 531 
L 3444 0 
L 616 0 
L 616 4666 
z
" transform="scale(0.015625)"/>
        <path id="DejaVuSansMono-44" d="M 1363 519 
Q 2159 519 2475 911 
Q 2791 1303 2791 2328 
Q 2791 3363 2477 3755 
Q 2163 4147 1363 4147 
L 1063 4147 
L 1063 519 
L 1363 519 
z
M 1375 4666 
Q 2444 4666 2950 4097 
Q 3456 3528 3456 2328 
Q 3456 1134 2950 567 
Q 2444 0 1375 0 
L 428 0 
L 428 4666 
L 1375 4666 
z
" transform="scale(0.015625)"/>
        <path id="DejaVuSansMono-3e" d="M 275 3003 
L 275 3572 
L 3578 2266 
L 3578 1747 
L 275 441 
L 275 1013 
L 2931 2003 
L 275 3003 
z
" transform="scale(0.015625)"/>
       </defs>
       <use xlink:href="#DejaVuSansMono-3c"/>
       <use xlink:href="#DejaVuSansMono-55" x="60.205078"/>
       <use xlink:href="#DejaVuSansMono-4e" x="120.410156"/>
       <use xlink:href="#DejaVuSansMono-41" x="180.615234"/>
       <use xlink:href="#DejaVuSansMono-4e" x="240.820312"/>
       <use xlink:href="#DejaVuSansMono-4e" x="301.025391"/>
       <use xlink:href="#DejaVuSansMono-4f" x="361.230469"/>
       <use xlink:href="#DejaVuSansMono-54" x="421.435547"/>
       <use xlink:href="#DejaVuSansMono-41" x="481.640625"/>
       <use xlink:href="#DejaVuSansMono-54" x="541.845703"/>
       <use xlink:href="#DejaVuSansMono-45" x="602.050781"/>
       <use xlink:href="#DejaVuSansMono-44" x="662.255859"/>
       <use xlink:href="#DejaVuSansMono-3e" x="722.460938"/>
      </g>
     </g>
    </g>
    <g id="xtick_2">
     <g id="line2d_2">
      <g>
       <use xlink:href="#md404ef3239" x="130.571564" y="355.021875" style="stroke: #000000; stroke-width: 0.8"/>
      </g>
     </g>
     <g id="text_2">
      <!-- AGC -->
      <g transform="translate(113.89049 377.678791) rotate(-30) scale(0.1 -0.1)">
       <defs>
        <path id="DejaVuSansMono-47" d="M 3450 384 
Q 3197 150 2880 29 
Q 2563 -91 2194 -91 
Q 1306 -91 812 545 
Q 319 1181 319 2328 
Q 319 3472 819 4111 
Q 1319 4750 2209 4750 
Q 2503 4750 2772 4667 
Q 3041 4584 3291 4416 
L 3291 3769 
Q 3038 4009 2772 4123 
Q 2506 4238 2209 4238 
Q 1594 4238 1286 3761 
Q 978 3284 978 2328 
Q 978 1356 1276 889 
Q 1575 422 2194 422 
Q 2403 422 2561 470 
Q 2719 519 2847 622 
L 2847 1875 
L 2169 1875 
L 2169 2394 
L 3450 2394 
L 3450 384 
z
" transform="scale(0.015625)"/>
        <path id="DejaVuSansMono-43" d="M 3353 166 
Q 3113 38 2859 -26 
Q 2606 -91 2322 -91 
Q 1425 -91 929 543 
Q 434 1178 434 2328 
Q 434 3472 932 4111 
Q 1431 4750 2322 4750 
Q 2606 4750 2859 4686 
Q 3113 4622 3353 4494 
L 3353 3847 
Q 3122 4038 2856 4138 
Q 2591 4238 2322 4238 
Q 1706 4238 1400 3763 
Q 1094 3288 1094 2328 
Q 1094 1372 1400 897 
Q 1706 422 2322 422 
Q 2597 422 2861 522 
Q 3125 622 3353 813 
L 3353 166 
z
" transform="scale(0.015625)"/>
       </defs>
       <use xlink:href="#DejaVuSansMono-41"/>
       <use xlink:href="#DejaVuSansMono-47" x="60.205078"/>
       <use xlink:href="#DejaVuSansMono-43" x="120.410156"/>
      </g>
     </g>
    </g>
    <g id="xtick_3">
     <g id="line2d_3">
      <g>
       <use xlink:href="#md404ef3239" x="181.298837" y="355.021875" style="stroke: #000000; stroke-width: 0.8"/>
      </g>
     </g>
     <g id="text_3">
      <!-- ATYPICAL -->
      <g transform="translate(138.549045 392.729573) rotate(-30) scale(0.1 -0.1)">
       <defs>
        <path id="DejaVuSansMono-59" d="M 116 4666 
L 788 4666 
L 1925 2606 
L 3059 4666 
L 3738 4666 
L 2241 2094 
L 2241 0 
L 1606 0 
L 1606 2094 
L 116 4666 
z
" transform="scale(0.015625)"/>
        <path id="DejaVuSansMono-50" d="M 1247 4147 
L 1247 2394 
L 1978 2394 
Q 2416 2394 2661 2625 
Q 2906 2856 2906 3272 
Q 2906 3688 2662 3917 
Q 2419 4147 1978 4147 
L 1247 4147 
z
M 616 4666 
L 1978 4666 
Q 2759 4666 3162 4311 
Q 3566 3956 3566 3272 
Q 3566 2581 3164 2228 
Q 2763 1875 1978 1875 
L 1247 1875 
L 1247 0 
L 616 0 
L 616 4666 
z
" transform="scale(0.015625)"/>
        <path id="DejaVuSansMono-49" d="M 628 4666 
L 3219 4666 
L 3219 4134 
L 2241 4134 
L 2241 531 
L 3219 531 
L 3219 0 
L 628 0 
L 628 531 
L 1606 531 
L 1606 4134 
L 628 4134 
L 628 4666 
z
" transform="scale(0.015625)"/>
        <path id="DejaVuSansMono-4c" d="M 672 4666 
L 1306 4666 
L 1306 531 
L 3559 531 
L 3559 0 
L 672 0 
L 672 4666 
z
" transform="scale(0.015625)"/>
       </defs>
       <use xlink:href="#DejaVuSansMono-41"/>
       <use xlink:href="#DejaVuSansMono-54" x="60.205078"/>
       <use xlink:href="#DejaVuSansMono-59" x="120.410156"/>
       <use xlink:href="#DejaVuSansMono-50" x="180.615234"/>
       <use xlink:href="#DejaVuSansMono-49" x="240.820312"/>
       <use xlink:href="#DejaVuSansMono-43" x="301.025391"/>
       <use xlink:href="#DejaVuSansMono-41" x="361.230469"/>
       <use xlink:href="#DejaVuSansMono-4c" x="421.435547"/>
      </g>
     </g>
    </g>
    <g id="xtick_4">
     <g id="line2d_4">
      <g>
       <use xlink:href="#md404ef3239" x="232.02611" y="355.021875" style="stroke: #000000; stroke-width: 0.8"/>
      </g>
     </g>
     <g id="text_4">
      <!-- CAMK -->
      <g transform="translate(210.131292 380.688948) rotate(-30) scale(0.1 -0.1)">
       <defs>
        <path id="DejaVuSansMono-4d" d="M 269 4666 
L 1113 4666 
L 1919 2291 
L 2731 4666 
L 3578 4666 
L 3578 0 
L 2994 0 
L 2994 4122 
L 2163 1663 
L 1684 1663 
L 850 4122 
L 850 0 
L 269 0 
L 269 4666 
z
" transform="scale(0.015625)"/>
        <path id="DejaVuSansMono-4b" d="M 428 4666 
L 1063 4666 
L 1063 2591 
L 3034 4666 
L 3775 4666 
L 1959 2759 
L 3828 0 
L 3066 0 
L 1544 2338 
L 1063 1825 
L 1063 0 
L 428 0 
L 428 4666 
z
" transform="scale(0.015625)"/>
       </defs>
       <use xlink:href="#DejaVuSansMono-43"/>
       <use xlink:href="#DejaVuSansMono-41" x="60.205078"/>
       <use xlink:href="#DejaVuSansMono-4d" x="120.410156"/>
       <use xlink:href="#DejaVuSansMono-4b" x="180.615234"/>
      </g>
     </g>
    </g>
    <g id="xtick_5">
     <g id="line2d_5">
      <g>
       <use xlink:href="#md404ef3239" x="282.753382" y="355.021875" style="stroke: #000000; stroke-width: 0.8"/>
      </g>
     </g>
     <g id="text_5">
      <!-- CK1 -->
      <g transform="translate(266.072308 377.678791) rotate(-30) scale(0.1 -0.1)">
       <defs>
        <path id="DejaVuSansMono-31" d="M 844 531 
L 1825 531 
L 1825 4097 
L 769 3859 
L 769 4434 
L 1819 4666 
L 2450 4666 
L 2450 531 
L 3419 531 
L 3419 0 
L 844 0 
L 844 531 
z
" transform="scale(0.015625)"/>
       </defs>
       <use xlink:href="#DejaVuSansMono-43"/>
       <use xlink:href="#DejaVuSansMono-4b" x="60.205078"/>
       <use xlink:href="#DejaVuSansMono-31" x="120.410156"/>
      </g>
     </g>
    </g>
    <g id="xtick_6">
     <g id="line2d_6">
      <g>
       <use xlink:href="#md404ef3239" x="333.480655" y="355.021875" style="stroke: #000000; stroke-width: 0.8"/>
      </g>
     </g>
     <g id="text_6">
      <!-- CMGC -->
      <g transform="translate(311.585837 380.688948) rotate(-30) scale(0.1 -0.1)">
       <use xlink:href="#DejaVuSansMono-43"/>
       <use xlink:href="#DejaVuSansMono-4d" x="60.205078"/>
       <use xlink:href="#DejaVuSansMono-47" x="120.410156"/>
       <use xlink:href="#DejaVuSansMono-43" x="180.615234"/>
      </g>
     </g>
    </g>
    <g id="xtick_7">
     <g id="line2d_7">
      <g>
       <use xlink:href="#md404ef3239" x="384.207928" y="355.021875" style="stroke: #000000; stroke-width: 0.8"/>
      </g>
     </g>
     <g id="text_7">
      <!-- OTHER -->
      <g transform="translate(357.099366 383.699104) rotate(-30) scale(0.1 -0.1)">
       <defs>
        <path id="DejaVuSansMono-48" d="M 428 4666 
L 1063 4666 
L 1063 2753 
L 2791 2753 
L 2791 4666 
L 3425 4666 
L 3425 0 
L 2791 0 
L 2791 2222 
L 1063 2222 
L 1063 0 
L 428 0 
L 428 4666 
z
" transform="scale(0.015625)"/>
        <path id="DejaVuSansMono-52" d="M 2375 2203 
Q 2619 2141 2791 1967 
Q 2963 1794 3219 1275 
L 3853 0 
L 3175 0 
L 2619 1178 
Q 2378 1681 2186 1826 
Q 1994 1972 1684 1972 
L 1081 1972 
L 1081 0 
L 447 0 
L 447 4666 
L 1747 4666 
Q 2516 4666 2925 4319 
Q 3334 3972 3334 3316 
Q 3334 2853 3082 2561 
Q 2831 2269 2375 2203 
z
M 1081 4147 
L 1081 2491 
L 1772 2491 
Q 2225 2491 2447 2694 
Q 2669 2897 2669 3316 
Q 2669 3719 2433 3933 
Q 2197 4147 1747 4147 
L 1081 4147 
z
" transform="scale(0.015625)"/>
       </defs>
       <use xlink:href="#DejaVuSansMono-4f"/>
       <use xlink:href="#DejaVuSansMono-54" x="60.205078"/>
       <use xlink:href="#DejaVuSansMono-48" x="120.410156"/>
       <use xlink:href="#DejaVuSansMono-45" x="180.615234"/>
       <use xlink:href="#DejaVuSansMono-52" x="240.820312"/>
      </g>
     </g>
    </g>
    <g id="xtick_8">
     <g id="line2d_8">
      <g>
       <use xlink:href="#md404ef3239" x="434.9352" y="355.021875" style="stroke: #000000; stroke-width: 0.8"/>
      </g>
     </g>
     <g id="text_8">
      <!-- STE -->
      <g transform="translate(418.254126 377.678791) rotate(-30) scale(0.1 -0.1)">
       <defs>
        <path id="DejaVuSansMono-53" d="M 3163 4506 
L 3163 3866 
Q 2875 4050 2586 4144 
Q 2297 4238 2003 4238 
Q 1556 4238 1297 4030 
Q 1038 3822 1038 3469 
Q 1038 3159 1208 2996 
Q 1378 2834 1844 2725 
L 2175 2650 
Q 2831 2497 3131 2169 
Q 3431 1841 3431 1275 
Q 3431 609 3018 259 
Q 2606 -91 1819 -91 
Q 1491 -91 1159 -20 
Q 828 50 494 191 
L 494 863 
Q 853 634 1173 528 
Q 1494 422 1819 422 
Q 2297 422 2562 636 
Q 2828 850 2828 1234 
Q 2828 1584 2645 1768 
Q 2463 1953 2009 2053 
L 1672 2131 
Q 1022 2278 728 2575 
Q 434 2872 434 3372 
Q 434 3997 854 4373 
Q 1275 4750 1972 4750 
Q 2241 4750 2537 4689 
Q 2834 4628 3163 4506 
z
" transform="scale(0.015625)"/>
       </defs>
       <use xlink:href="#DejaVuSansMono-53"/>
       <use xlink:href="#DejaVuSansMono-54" x="60.205078"/>
       <use xlink:href="#DejaVuSansMono-45" x="120.410156"/>
      </g>
     </g>
    </g>
    <g id="xtick_9">
     <g id="line2d_9">
      <g>
       <use xlink:href="#md404ef3239" x="485.662473" y="355.021875" style="stroke: #000000; stroke-width: 0.8"/>
      </g>
     </g>
     <g id="text_9">
      <!-- TK -->
      <g transform="translate(474.195142 374.668635) rotate(-30) scale(0.1 -0.1)">
       <use xlink:href="#DejaVuSansMono-54"/>
       <use xlink:href="#DejaVuSansMono-4b" x="60.205078"/>
      </g>
     </g>
    </g>
    <g id="xtick_10">
     <g id="line2d_10">
      <g>
       <use xlink:href="#md404ef3239" x="536.389746" y="355.021875" style="stroke: #000000; stroke-width: 0.8"/>
      </g>
     </g>
     <g id="text_10">
      <!-- TKL -->
      <g transform="translate(519.708671 377.678791) rotate(-30) scale(0.1 -0.1)">
       <use xlink:href="#DejaVuSansMono-54"/>
       <use xlink:href="#DejaVuSansMono-4b" x="60.205078"/>
       <use xlink:href="#DejaVuSansMono-4c" x="120.410156"/>
      </g>
     </g>
    </g>
    <g id="xtick_11">
     <g id="line2d_11">
      <g>
       <use xlink:href="#md404ef3239" x="587.117019" y="355.021875" style="stroke: #000000; stroke-width: 0.8"/>
      </g>
     </g>
     <g id="text_11">
      <!-- TOTALS -->
      <g transform="translate(554.794713 386.70926) rotate(-30) scale(0.1 -0.1)">
       <use xlink:href="#DejaVuSansMono-54"/>
       <use xlink:href="#DejaVuSansMono-4f" x="60.205078"/>
       <use xlink:href="#DejaVuSansMono-54" x="120.410156"/>
       <use xlink:href="#DejaVuSansMono-41" x="180.615234"/>
       <use xlink:href="#DejaVuSansMono-4c" x="240.820312"/>
       <use xlink:href="#DejaVuSansMono-53" x="301.025391"/>
      </g>
     </g>
    </g>
    <g id="text_12">
     <!-- Kinase Group -->
     <g transform="translate(297.35878 421.232978) scale(0.1 -0.1)">
      <defs>
       <path id="DejaVuSansMono-69" d="M 800 3500 
L 2272 3500 
L 2272 447 
L 3413 447 
L 3413 0 
L 556 0 
L 556 447 
L 1697 447 
L 1697 3053 
L 800 3053 
L 800 3500 
z
M 1697 4863 
L 2272 4863 
L 2272 4134 
L 1697 4134 
L 1697 4863 
z
" transform="scale(0.015625)"/>
       <path id="DejaVuSansMono-6e" d="M 3284 2169 
L 3284 0 
L 2706 0 
L 2706 2169 
Q 2706 2641 2540 2862 
Q 2375 3084 2022 3084 
Q 1619 3084 1401 2798 
Q 1184 2513 1184 1978 
L 1184 0 
L 609 0 
L 609 3500 
L 1184 3500 
L 1184 2975 
Q 1338 3275 1600 3429 
Q 1863 3584 2222 3584 
Q 2756 3584 3020 3232 
Q 3284 2881 3284 2169 
z
" transform="scale(0.015625)"/>
       <path id="DejaVuSansMono-61" d="M 2194 1759 
L 2003 1759 
Q 1500 1759 1245 1582 
Q 991 1406 991 1056 
Q 991 741 1181 566 
Q 1372 391 1709 391 
Q 2184 391 2456 720 
Q 2728 1050 2731 1631 
L 2731 1759 
L 2194 1759 
z
M 3309 1997 
L 3309 0 
L 2731 0 
L 2731 519 
Q 2547 206 2267 57 
Q 1988 -91 1588 -91 
Q 1053 -91 734 211 
Q 416 513 416 1019 
Q 416 1603 808 1906 
Q 1200 2209 1959 2209 
L 2731 2209 
L 2731 2300 
Q 2728 2719 2518 2908 
Q 2309 3097 1850 3097 
Q 1556 3097 1256 3012 
Q 956 2928 672 2766 
L 672 3341 
Q 991 3463 1283 3523 
Q 1575 3584 1850 3584 
Q 2284 3584 2592 3456 
Q 2900 3328 3091 3072 
Q 3209 2916 3259 2686 
Q 3309 2456 3309 1997 
z
" transform="scale(0.015625)"/>
       <path id="DejaVuSansMono-73" d="M 3041 3378 
L 3041 2816 
Q 2794 2959 2544 3031 
Q 2294 3103 2034 3103 
Q 1644 3103 1451 2976 
Q 1259 2850 1259 2591 
Q 1259 2356 1403 2240 
Q 1547 2125 2119 2016 
L 2350 1972 
Q 2778 1891 2998 1647 
Q 3219 1403 3219 1013 
Q 3219 494 2850 201 
Q 2481 -91 1825 -91 
Q 1566 -91 1281 -36 
Q 997 19 666 128 
L 666 722 
Q 988 556 1281 473 
Q 1575 391 1838 391 
Q 2219 391 2428 545 
Q 2638 700 2638 978 
Q 2638 1378 1872 1531 
L 1847 1538 
L 1631 1581 
Q 1134 1678 906 1908 
Q 678 2138 678 2534 
Q 678 3038 1018 3311 
Q 1359 3584 1991 3584 
Q 2272 3584 2531 3532 
Q 2791 3481 3041 3378 
z
" transform="scale(0.015625)"/>
       <path id="DejaVuSansMono-65" d="M 3475 1894 
L 3475 1613 
L 984 1613 
L 984 1594 
Q 984 1022 1282 709 
Q 1581 397 2125 397 
Q 2400 397 2700 484 
Q 3000 572 3341 750 
L 3341 178 
Q 3013 44 2708 -23 
Q 2403 -91 2119 -91 
Q 1303 -91 843 398 
Q 384 888 384 1747 
Q 384 2584 834 3084 
Q 1284 3584 2034 3584 
Q 2703 3584 3089 3131 
Q 3475 2678 3475 1894 
z
M 2900 2063 
Q 2888 2569 2661 2833 
Q 2434 3097 2009 3097 
Q 1594 3097 1325 2822 
Q 1056 2547 1006 2059 
L 2900 2063 
z
" transform="scale(0.015625)"/>
       <path id="DejaVuSansMono-20" transform="scale(0.015625)"/>
       <path id="DejaVuSansMono-72" d="M 3609 2778 
Q 3425 2922 3234 2987 
Q 3044 3053 2816 3053 
Q 2278 3053 1993 2715 
Q 1709 2378 1709 1741 
L 1709 0 
L 1131 0 
L 1131 3500 
L 1709 3500 
L 1709 2816 
Q 1853 3188 2151 3386 
Q 2450 3584 2859 3584 
Q 3072 3584 3256 3531 
Q 3441 3478 3609 3366 
L 3609 2778 
z
" transform="scale(0.015625)"/>
       <path id="DejaVuSansMono-6f" d="M 1925 3097 
Q 1488 3097 1263 2756 
Q 1038 2416 1038 1747 
Q 1038 1081 1263 739 
Q 1488 397 1925 397 
Q 2366 397 2591 739 
Q 2816 1081 2816 1747 
Q 2816 2416 2591 2756 
Q 2366 3097 1925 3097 
z
M 1925 3584 
Q 2653 3584 3039 3112 
Q 3425 2641 3425 1747 
Q 3425 850 3040 379 
Q 2656 -91 1925 -91 
Q 1197 -91 812 379 
Q 428 850 428 1747 
Q 428 2641 812 3112 
Q 1197 3584 1925 3584 
z
" transform="scale(0.015625)"/>
       <path id="DejaVuSansMono-75" d="M 609 1325 
L 609 3494 
L 1184 3494 
L 1184 1325 
Q 1184 853 1351 631 
Q 1519 409 1869 409 
Q 2275 409 2490 695 
Q 2706 981 2706 1516 
L 2706 3494 
L 3284 3494 
L 3284 0 
L 2706 0 
L 2706 525 
Q 2553 222 2289 65 
Q 2025 -91 1672 -91 
Q 1134 -91 871 261 
Q 609 613 609 1325 
z
" transform="scale(0.015625)"/>
       <path id="DejaVuSansMono-70" d="M 1172 441 
L 1172 -1331 
L 594 -1331 
L 594 3500 
L 1172 3500 
L 1172 3053 
Q 1316 3313 1555 3448 
Q 1794 3584 2106 3584 
Q 2741 3584 3102 3093 
Q 3463 2603 3463 1734 
Q 3463 881 3100 395 
Q 2738 -91 2106 -91 
Q 1788 -91 1548 45 
Q 1309 181 1172 441 
z
M 2859 1747 
Q 2859 2416 2648 2756 
Q 2438 3097 2022 3097 
Q 1603 3097 1387 2755 
Q 1172 2413 1172 1747 
Q 1172 1084 1387 740 
Q 1603 397 2022 397 
Q 2438 397 2648 737 
Q 2859 1078 2859 1747 
z
" transform="scale(0.015625)"/>
      </defs>
      <use xlink:href="#DejaVuSansMono-4b"/>
      <use xlink:href="#DejaVuSansMono-69" x="60.205078"/>
      <use xlink:href="#DejaVuSansMono-6e" x="120.410156"/>
      <use xlink:href="#DejaVuSansMono-61" x="180.615234"/>
      <use xlink:href="#DejaVuSansMono-73" x="240.820312"/>
      <use xlink:href="#DejaVuSansMono-65" x="301.025391"/>
      <use xlink:href="#DejaVuSansMono-20" x="361.230469"/>
      <use xlink:href="#DejaVuSansMono-47" x="421.435547"/>
      <use xlink:href="#DejaVuSansMono-72" x="481.640625"/>
      <use xlink:href="#DejaVuSansMono-6f" x="541.845703"/>
      <use xlink:href="#DejaVuSansMono-75" x="602.050781"/>
      <use xlink:href="#DejaVuSansMono-70" x="662.255859"/>
     </g>
    </g>
   </g>
   <g id="matplotlib.axis_2">
    <g id="ytick_1">
     <g id="line2d_12">
      <defs>
       <path id="md8a56930e5" d="M 0 0 
L -3.5 0 
" style="stroke: #000000; stroke-width: 0.8"/>
      </defs>
      <g>
       <use xlink:href="#md8a56930e5" x="54.480655" y="355.021875" style="stroke: #000000; stroke-width: 0.8"/>
      </g>
     </g>
     <g id="text_13">
      <!-- 0 -->
      <g transform="translate(41.460342 358.847656) scale(0.1 -0.1)">
       <defs>
        <path id="DejaVuSansMono-30" d="M 1509 2344 
Q 1509 2516 1629 2641 
Q 1750 2766 1919 2766 
Q 2094 2766 2219 2641 
Q 2344 2516 2344 2344 
Q 2344 2169 2220 2047 
Q 2097 1925 1919 1925 
Q 1744 1925 1626 2044 
Q 1509 2163 1509 2344 
z
M 1925 4250 
Q 1484 4250 1267 3775 
Q 1050 3300 1050 2328 
Q 1050 1359 1267 884 
Q 1484 409 1925 409 
Q 2369 409 2586 884 
Q 2803 1359 2803 2328 
Q 2803 3300 2586 3775 
Q 2369 4250 1925 4250 
z
M 1925 4750 
Q 2672 4750 3055 4137 
Q 3438 3525 3438 2328 
Q 3438 1134 3055 521 
Q 2672 -91 1925 -91 
Q 1178 -91 797 521 
Q 416 1134 416 2328 
Q 416 3525 797 4137 
Q 1178 4750 1925 4750 
z
" transform="scale(0.015625)"/>
       </defs>
       <use xlink:href="#DejaVuSansMono-30"/>
      </g>
     </g>
    </g>
    <g id="ytick_2">
     <g id="line2d_13">
      <g>
       <use xlink:href="#md8a56930e5" x="54.480655" y="339.181875" style="stroke: #000000; stroke-width: 0.8"/>
      </g>
     </g>
     <g id="text_14">
      <!-- 5 -->
      <g transform="translate(41.460342 343.007656) scale(0.1 -0.1)">
       <defs>
        <path id="DejaVuSansMono-35" d="M 647 4666 
L 3009 4666 
L 3009 4134 
L 1222 4134 
L 1222 2988 
Q 1356 3038 1492 3061 
Q 1628 3084 1766 3084 
Q 2491 3084 2916 2656 
Q 3341 2228 3341 1497 
Q 3341 759 2895 334 
Q 2450 -91 1678 -91 
Q 1306 -91 998 -41 
Q 691 9 447 109 
L 447 750 
Q 734 594 1025 517 
Q 1316 441 1619 441 
Q 2141 441 2423 716 
Q 2706 991 2706 1497 
Q 2706 1997 2414 2275 
Q 2122 2553 1600 2553 
Q 1347 2553 1106 2495 
Q 866 2438 647 2322 
L 647 4666 
z
" transform="scale(0.015625)"/>
       </defs>
       <use xlink:href="#DejaVuSansMono-35"/>
      </g>
     </g>
    </g>
    <g id="ytick_3">
     <g id="line2d_14">
      <g>
       <use xlink:href="#md8a56930e5" x="54.480655" y="323.341875" style="stroke: #000000; stroke-width: 0.8"/>
      </g>
     </g>
     <g id="text_15">
      <!-- 10 -->
      <g transform="translate(35.44003 327.167656) scale(0.1 -0.1)">
       <use xlink:href="#DejaVuSansMono-31"/>
       <use xlink:href="#DejaVuSansMono-30" x="60.205078"/>
      </g>
     </g>
    </g>
    <g id="ytick_4">
     <g id="line2d_15">
      <g>
       <use xlink:href="#md8a56930e5" x="54.480655" y="307.501875" style="stroke: #000000; stroke-width: 0.8"/>
      </g>
     </g>
     <g id="text_16">
      <!-- 15 -->
      <g transform="translate(35.44003 311.327656) scale(0.1 -0.1)">
       <use xlink:href="#DejaVuSansMono-31"/>
       <use xlink:href="#DejaVuSansMono-35" x="60.205078"/>
      </g>
     </g>
    </g>
    <g id="ytick_5">
     <g id="line2d_16">
      <g>
       <use xlink:href="#md8a56930e5" x="54.480655" y="291.661875" style="stroke: #000000; stroke-width: 0.8"/>
      </g>
     </g>
     <g id="text_17">
      <!-- 20 -->
      <g transform="translate(35.44003 295.487656) scale(0.1 -0.1)">
       <defs>
        <path id="DejaVuSansMono-32" d="M 1166 531 
L 3309 531 
L 3309 0 
L 475 0 
L 475 531 
Q 1059 1147 1496 1619 
Q 1934 2091 2100 2284 
Q 2413 2666 2522 2902 
Q 2631 3138 2631 3384 
Q 2631 3775 2401 3997 
Q 2172 4219 1772 4219 
Q 1488 4219 1175 4116 
Q 863 4013 513 3803 
L 513 4441 
Q 834 4594 1145 4672 
Q 1456 4750 1759 4750 
Q 2444 4750 2861 4386 
Q 3278 4022 3278 3431 
Q 3278 3131 3139 2831 
Q 3000 2531 2688 2169 
Q 2513 1966 2180 1606 
Q 1847 1247 1166 531 
z
" transform="scale(0.015625)"/>
       </defs>
       <use xlink:href="#DejaVuSansMono-32"/>
       <use xlink:href="#DejaVuSansMono-30" x="60.205078"/>
      </g>
     </g>
    </g>
    <g id="ytick_6">
     <g id="line2d_17">
      <g>
       <use xlink:href="#md8a56930e5" x="54.480655" y="275.821875" style="stroke: #000000; stroke-width: 0.8"/>
      </g>
     </g>
     <g id="text_18">
      <!-- 25 -->
      <g transform="translate(35.44003 279.647656) scale(0.1 -0.1)">
       <use xlink:href="#DejaVuSansMono-32"/>
       <use xlink:href="#DejaVuSansMono-35" x="60.205078"/>
      </g>
     </g>
    </g>
    <g id="ytick_7">
     <g id="line2d_18">
      <g>
       <use xlink:href="#md8a56930e5" x="54.480655" y="259.981875" style="stroke: #000000; stroke-width: 0.8"/>
      </g>
     </g>
     <g id="text_19">
      <!-- 30 -->
      <g transform="translate(35.44003 263.807656) scale(0.1 -0.1)">
       <defs>
        <path id="DejaVuSansMono-33" d="M 2425 2497 
Q 2884 2375 3128 2064 
Q 3372 1753 3372 1288 
Q 3372 644 2939 276 
Q 2506 -91 1741 -91 
Q 1419 -91 1084 -31 
Q 750 28 428 141 
L 428 769 
Q 747 603 1056 522 
Q 1366 441 1672 441 
Q 2191 441 2469 675 
Q 2747 909 2747 1350 
Q 2747 1756 2469 1995 
Q 2191 2234 1716 2234 
L 1234 2234 
L 1234 2753 
L 1716 2753 
Q 2150 2753 2394 2943 
Q 2638 3134 2638 3475 
Q 2638 3834 2411 4026 
Q 2184 4219 1766 4219 
Q 1488 4219 1191 4156 
Q 894 4094 569 3969 
L 569 4550 
Q 947 4650 1242 4700 
Q 1538 4750 1766 4750 
Q 2447 4750 2855 4408 
Q 3263 4066 3263 3500 
Q 3263 3116 3048 2859 
Q 2834 2603 2425 2497 
z
" transform="scale(0.015625)"/>
       </defs>
       <use xlink:href="#DejaVuSansMono-33"/>
       <use xlink:href="#DejaVuSansMono-30" x="60.205078"/>
      </g>
     </g>
    </g>
    <g id="ytick_8">
     <g id="line2d_19">
      <g>
       <use xlink:href="#md8a56930e5" x="54.480655" y="244.141875" style="stroke: #000000; stroke-width: 0.8"/>
      </g>
     </g>
     <g id="text_20">
      <!-- 35 -->
      <g transform="translate(35.44003 247.967656) scale(0.1 -0.1)">
       <use xlink:href="#DejaVuSansMono-33"/>
       <use xlink:href="#DejaVuSansMono-35" x="60.205078"/>
      </g>
     </g>
    </g>
    <g id="ytick_9">
     <g id="line2d_20">
      <g>
       <use xlink:href="#md8a56930e5" x="54.480655" y="228.301875" style="stroke: #000000; stroke-width: 0.8"/>
      </g>
     </g>
     <g id="text_21">
      <!-- 40 -->
      <g transform="translate(35.44003 232.127656) scale(0.1 -0.1)">
       <defs>
        <path id="DejaVuSansMono-34" d="M 2297 4091 
L 825 1625 
L 2297 1625 
L 2297 4091 
z
M 2194 4666 
L 2925 4666 
L 2925 1625 
L 3547 1625 
L 3547 1113 
L 2925 1113 
L 2925 0 
L 2297 0 
L 2297 1113 
L 319 1113 
L 319 1709 
L 2194 4666 
z
" transform="scale(0.015625)"/>
       </defs>
       <use xlink:href="#DejaVuSansMono-34"/>
       <use xlink:href="#DejaVuSansMono-30" x="60.205078"/>
      </g>
     </g>
    </g>
    <g id="ytick_10">
     <g id="line2d_21">
      <g>
       <use xlink:href="#md8a56930e5" x="54.480655" y="212.461875" style="stroke: #000000; stroke-width: 0.8"/>
      </g>
     </g>
     <g id="text_22">
      <!-- 45 -->
      <g transform="translate(35.44003 216.287656) scale(0.1 -0.1)">
       <use xlink:href="#DejaVuSansMono-34"/>
       <use xlink:href="#DejaVuSansMono-35" x="60.205078"/>
      </g>
     </g>
    </g>
    <g id="ytick_11">
     <g id="line2d_22">
      <g>
       <use xlink:href="#md8a56930e5" x="54.480655" y="196.621875" style="stroke: #000000; stroke-width: 0.8"/>
      </g>
     </g>
     <g id="text_23">
      <!-- 50 -->
      <g transform="translate(35.44003 200.447656) scale(0.1 -0.1)">
       <use xlink:href="#DejaVuSansMono-35"/>
       <use xlink:href="#DejaVuSansMono-30" x="60.205078"/>
      </g>
     </g>
    </g>
    <g id="ytick_12">
     <g id="line2d_23">
      <g>
       <use xlink:href="#md8a56930e5" x="54.480655" y="180.781875" style="stroke: #000000; stroke-width: 0.8"/>
      </g>
     </g>
     <g id="text_24">
      <!-- 55 -->
      <g transform="translate(35.44003 184.607656) scale(0.1 -0.1)">
       <use xlink:href="#DejaVuSansMono-35"/>
       <use xlink:href="#DejaVuSansMono-35" x="60.205078"/>
      </g>
     </g>
    </g>
    <g id="ytick_13">
     <g id="line2d_24">
      <g>
       <use xlink:href="#md8a56930e5" x="54.480655" y="164.941875" style="stroke: #000000; stroke-width: 0.8"/>
      </g>
     </g>
     <g id="text_25">
      <!-- 60 -->
      <g transform="translate(35.44003 168.767656) scale(0.1 -0.1)">
       <defs>
        <path id="DejaVuSansMono-36" d="M 3097 4563 
L 3097 3981 
Q 2900 4097 2678 4158 
Q 2456 4219 2216 4219 
Q 1616 4219 1306 3767 
Q 997 3316 997 2438 
Q 1147 2750 1412 2917 
Q 1678 3084 2022 3084 
Q 2697 3084 3067 2670 
Q 3438 2256 3438 1497 
Q 3438 741 3056 325 
Q 2675 -91 1984 -91 
Q 1172 -91 794 492 
Q 416 1075 416 2328 
Q 416 3509 870 4129 
Q 1325 4750 2188 4750 
Q 2419 4750 2650 4701 
Q 2881 4653 3097 4563 
z
M 1972 2591 
Q 1569 2591 1337 2300 
Q 1106 2009 1106 1497 
Q 1106 984 1337 693 
Q 1569 403 1972 403 
Q 2391 403 2603 679 
Q 2816 956 2816 1497 
Q 2816 2041 2603 2316 
Q 2391 2591 1972 2591 
z
" transform="scale(0.015625)"/>
       </defs>
       <use xlink:href="#DejaVuSansMono-36"/>
       <use xlink:href="#DejaVuSansMono-30" x="60.205078"/>
      </g>
     </g>
    </g>
    <g id="ytick_14">
     <g id="line2d_25">
      <g>
       <use xlink:href="#md8a56930e5" x="54.480655" y="149.101875" style="stroke: #000000; stroke-width: 0.8"/>
      </g>
     </g>
     <g id="text_26">
      <!-- 65 -->
      <g transform="translate(35.44003 152.927656) scale(0.1 -0.1)">
       <use xlink:href="#DejaVuSansMono-36"/>
       <use xlink:href="#DejaVuSansMono-35" x="60.205078"/>
      </g>
     </g>
    </g>
    <g id="ytick_15">
     <g id="line2d_26">
      <g>
       <use xlink:href="#md8a56930e5" x="54.480655" y="133.261875" style="stroke: #000000; stroke-width: 0.8"/>
      </g>
     </g>
     <g id="text_27">
      <!-- 70 -->
      <g transform="translate(35.44003 137.087656) scale(0.1 -0.1)">
       <defs>
        <path id="DejaVuSansMono-37" d="M 434 4666 
L 3372 4666 
L 3372 4397 
L 1703 0 
L 1044 0 
L 2669 4134 
L 434 4134 
L 434 4666 
z
" transform="scale(0.015625)"/>
       </defs>
       <use xlink:href="#DejaVuSansMono-37"/>
       <use xlink:href="#DejaVuSansMono-30" x="60.205078"/>
      </g>
     </g>
    </g>
    <g id="ytick_16">
     <g id="line2d_27">
      <g>
       <use xlink:href="#md8a56930e5" x="54.480655" y="117.421875" style="stroke: #000000; stroke-width: 0.8"/>
      </g>
     </g>
     <g id="text_28">
      <!-- 75 -->
      <g transform="translate(35.44003 121.247656) scale(0.1 -0.1)">
       <use xlink:href="#DejaVuSansMono-37"/>
       <use xlink:href="#DejaVuSansMono-35" x="60.205078"/>
      </g>
     </g>
    </g>
    <g id="ytick_17">
     <g id="line2d_28">
      <g>
       <use xlink:href="#md8a56930e5" x="54.480655" y="101.581875" style="stroke: #000000; stroke-width: 0.8"/>
      </g>
     </g>
     <g id="text_29">
      <!-- 80 -->
      <g transform="translate(35.44003 105.407656) scale(0.1 -0.1)">
       <defs>
        <path id="DejaVuSansMono-38" d="M 1925 2216 
Q 1503 2216 1273 1980 
Q 1044 1744 1044 1313 
Q 1044 881 1276 642 
Q 1509 403 1925 403 
Q 2350 403 2579 639 
Q 2809 875 2809 1313 
Q 2809 1741 2576 1978 
Q 2344 2216 1925 2216 
z
M 1375 2478 
Q 972 2581 745 2862 
Q 519 3144 519 3541 
Q 519 4097 897 4423 
Q 1275 4750 1925 4750 
Q 2578 4750 2956 4423 
Q 3334 4097 3334 3541 
Q 3334 3144 3107 2862 
Q 2881 2581 2478 2478 
Q 2947 2375 3195 2062 
Q 3444 1750 3444 1253 
Q 3444 622 3041 265 
Q 2638 -91 1925 -91 
Q 1213 -91 811 264 
Q 409 619 409 1247 
Q 409 1747 657 2061 
Q 906 2375 1375 2478 
z
M 1147 3481 
Q 1147 3106 1347 2909 
Q 1547 2713 1925 2713 
Q 2306 2713 2506 2909 
Q 2706 3106 2706 3481 
Q 2706 3863 2507 4063 
Q 2309 4263 1925 4263 
Q 1547 4263 1347 4061 
Q 1147 3859 1147 3481 
z
" transform="scale(0.015625)"/>
       </defs>
       <use xlink:href="#DejaVuSansMono-38"/>
       <use xlink:href="#DejaVuSansMono-30" x="60.205078"/>
      </g>
     </g>
    </g>
    <g id="ytick_18">
     <g id="line2d_29">
      <g>
       <use xlink:href="#md8a56930e5" x="54.480655" y="85.741875" style="stroke: #000000; stroke-width: 0.8"/>
      </g>
     </g>
     <g id="text_30">
      <!-- 85 -->
      <g transform="translate(35.44003 89.567656) scale(0.1 -0.1)">
       <use xlink:href="#DejaVuSansMono-38"/>
       <use xlink:href="#DejaVuSansMono-35" x="60.205078"/>
      </g>
     </g>
    </g>
    <g id="ytick_19">
     <g id="line2d_30">
      <g>
       <use xlink:href="#md8a56930e5" x="54.480655" y="69.901875" style="stroke: #000000; stroke-width: 0.8"/>
      </g>
     </g>
     <g id="text_31">
      <!-- 90 -->
      <g transform="translate(35.44003 73.727656) scale(0.1 -0.1)">
       <defs>
        <path id="DejaVuSansMono-39" d="M 1863 2069 
Q 2266 2069 2495 2359 
Q 2725 2650 2725 3163 
Q 2725 3675 2495 3965 
Q 2266 4256 1863 4256 
Q 1444 4256 1231 3979 
Q 1019 3703 1019 3163 
Q 1019 2619 1230 2344 
Q 1441 2069 1863 2069 
z
M 738 97 
L 738 678 
Q 934 563 1156 502 
Q 1378 441 1619 441 
Q 2219 441 2526 892 
Q 2834 1344 2834 2222 
Q 2688 1909 2422 1742 
Q 2156 1575 1813 1575 
Q 1138 1575 767 1990 
Q 397 2406 397 3169 
Q 397 3922 776 4336 
Q 1156 4750 1850 4750 
Q 2663 4750 3041 4165 
Q 3419 3581 3419 2328 
Q 3419 1150 2964 529 
Q 2509 -91 1644 -91 
Q 1416 -91 1184 -42 
Q 953 6 738 97 
z
" transform="scale(0.015625)"/>
       </defs>
       <use xlink:href="#DejaVuSansMono-39"/>
       <use xlink:href="#DejaVuSansMono-30" x="60.205078"/>
      </g>
     </g>
    </g>
    <g id="ytick_20">
     <g id="line2d_31">
      <g>
       <use xlink:href="#md8a56930e5" x="54.480655" y="54.061875" style="stroke: #000000; stroke-width: 0.8"/>
      </g>
     </g>
     <g id="text_32">
      <!-- 95 -->
      <g transform="translate(35.44003 57.887656) scale(0.1 -0.1)">
       <use xlink:href="#DejaVuSansMono-39"/>
       <use xlink:href="#DejaVuSansMono-35" x="60.205078"/>
      </g>
     </g>
    </g>
    <g id="ytick_21">
     <g id="line2d_32">
      <g>
       <use xlink:href="#md8a56930e5" x="54.480655" y="38.221875" style="stroke: #000000; stroke-width: 0.8"/>
      </g>
     </g>
     <g id="text_33">
      <!-- 100 -->
      <g transform="translate(29.419717 42.047656) scale(0.1 -0.1)">
       <use xlink:href="#DejaVuSansMono-31"/>
       <use xlink:href="#DejaVuSansMono-30" x="60.205078"/>
       <use xlink:href="#DejaVuSansMono-30" x="120.410156"/>
      </g>
     </g>
    </g>
    <g id="text_34">
     <!-- % Proportion of sites -->
     <g transform="translate(23.34003 251.915156) rotate(-90) scale(0.1 -0.1)">
      <defs>
       <path id="DejaVuSansMono-25" d="M 2175 997 
Q 2175 753 2339 587 
Q 2503 422 2747 422 
Q 2988 422 3155 589 
Q 3322 756 3322 997 
Q 3322 1238 3153 1406 
Q 2984 1575 2747 1575 
Q 2503 1575 2339 1409 
Q 2175 1244 2175 997 
z
M 1753 997 
Q 1753 1419 2040 1708 
Q 2328 1997 2747 1997 
Q 2947 1997 3126 1922 
Q 3306 1847 3450 1703 
Q 3594 1556 3672 1375 
Q 3750 1194 3750 997 
Q 3750 581 3459 290 
Q 3169 0 2747 0 
Q 2322 0 2037 286 
Q 1753 572 1753 997 
z
M 378 1453 
L 269 1753 
L 3525 3059 
L 3653 2759 
L 378 1453 
z
M 525 3475 
Q 525 3228 689 3064 
Q 853 2900 1100 2900 
Q 1341 2900 1509 3067 
Q 1678 3234 1678 3475 
Q 1678 3716 1509 3883 
Q 1341 4050 1100 4050 
Q 859 4050 692 3884 
Q 525 3719 525 3475 
z
M 103 3475 
Q 103 3897 390 4186 
Q 678 4475 1100 4475 
Q 1300 4475 1483 4400 
Q 1666 4325 1806 4184 
Q 1947 4044 2023 3861 
Q 2100 3678 2100 3475 
Q 2100 3056 1809 2767 
Q 1519 2478 1100 2478 
Q 678 2478 390 2765 
Q 103 3053 103 3475 
z
" transform="scale(0.015625)"/>
       <path id="DejaVuSansMono-74" d="M 1919 4494 
L 1919 3500 
L 3225 3500 
L 3225 3053 
L 1919 3053 
L 1919 1153 
Q 1919 766 2066 612 
Q 2213 459 2578 459 
L 3225 459 
L 3225 0 
L 2522 0 
Q 1875 0 1609 259 
Q 1344 519 1344 1153 
L 1344 3053 
L 409 3053 
L 409 3500 
L 1344 3500 
L 1344 4494 
L 1919 4494 
z
" transform="scale(0.015625)"/>
       <path id="DejaVuSansMono-66" d="M 3322 4863 
L 3322 4384 
L 2669 4384 
Q 2359 4384 2239 4257 
Q 2119 4131 2119 3809 
L 2119 3500 
L 3322 3500 
L 3322 3053 
L 2119 3053 
L 2119 0 
L 1544 0 
L 1544 3053 
L 609 3053 
L 609 3500 
L 1544 3500 
L 1544 3744 
Q 1544 4319 1808 4591 
Q 2072 4863 2631 4863 
L 3322 4863 
z
" transform="scale(0.015625)"/>
      </defs>
      <use xlink:href="#DejaVuSansMono-25"/>
      <use xlink:href="#DejaVuSansMono-20" x="60.205078"/>
      <use xlink:href="#DejaVuSansMono-50" x="120.410156"/>
      <use xlink:href="#DejaVuSansMono-72" x="180.615234"/>
      <use xlink:href="#DejaVuSansMono-6f" x="240.820312"/>
      <use xlink:href="#DejaVuSansMono-70" x="301.025391"/>
      <use xlink:href="#DejaVuSansMono-6f" x="361.230469"/>
      <use xlink:href="#DejaVuSansMono-72" x="421.435547"/>
      <use xlink:href="#DejaVuSansMono-74" x="481.640625"/>
      <use xlink:href="#DejaVuSansMono-69" x="541.845703"/>
      <use xlink:href="#DejaVuSansMono-6f" x="602.050781"/>
      <use xlink:href="#DejaVuSansMono-6e" x="662.255859"/>
      <use xlink:href="#DejaVuSansMono-20" x="722.460938"/>
      <use xlink:href="#DejaVuSansMono-6f" x="782.666016"/>
      <use xlink:href="#DejaVuSansMono-66" x="842.871094"/>
      <use xlink:href="#DejaVuSansMono-20" x="903.076172"/>
      <use xlink:href="#DejaVuSansMono-73" x="963.28125"/>
      <use xlink:href="#DejaVuSansMono-69" x="1023.486328"/>
      <use xlink:href="#DejaVuSansMono-74" x="1083.691406"/>
      <use xlink:href="#DejaVuSansMono-65" x="1143.896484"/>
      <use xlink:href="#DejaVuSansMono-73" x="1204.101562"/>
     </g>
    </g>
   </g>
   <g id="LineCollection_1">
    <path d="M -1 133.261875 
L 620.680655 133.261875 
" clip-path="url(#p9836217e27)" style="fill: none; stroke-dasharray: 3.7,1.6; stroke-dashoffset: 0; stroke: #000000"/>
   </g>
   <g id="LineCollection_2">
    <path d="M -1 85.741875 
L 620.680655 85.741875 
" clip-path="url(#p9836217e27)" style="fill: none; stroke-dasharray: 1,1.65; stroke-dashoffset: 0; stroke: #000000"/>
   </g>
   <g id="patch_36">
    <path d="M 54.480655 355.021875 
L 54.480655 22.381875 
" style="fill: none; stroke: #000000; stroke-width: 0.8; stroke-linejoin: miter; stroke-linecap: square"/>
   </g>
   <g id="patch_37">
    <path d="M 612.480655 355.021875 
L 612.480655 22.381875 
" style="fill: none; stroke: #000000; stroke-width: 0.8; stroke-linejoin: miter; stroke-linecap: square"/>
   </g>
   <g id="patch_38">
    <path d="M 54.480655 355.021875 
L 612.480655 355.021875 
" style="fill: none; stroke: #000000; stroke-width: 0.8; stroke-linejoin: miter; stroke-linecap: square"/>
   </g>
   <g id="patch_39">
    <path d="M 54.480655 22.381875 
L 612.480655 22.381875 
" style="fill: none; stroke: #000000; stroke-width: 0.8; stroke-linejoin: miter; stroke-linecap: square"/>
   </g>
   <g id="text_35">
    <!-- Result of Repeated Simulated Annealing -->
    <g transform="translate(196.21753 16.381875) scale(0.12 -0.12)">
     <defs>
      <path id="DejaVuSansMono-6c" d="M 1997 1269 
Q 1997 881 2139 684 
Q 2281 488 2559 488 
L 3231 488 
L 3231 0 
L 2503 0 
Q 1988 0 1705 331 
Q 1422 663 1422 1269 
L 1422 4447 
L 500 4447 
L 500 4897 
L 1997 4897 
L 1997 1269 
z
" transform="scale(0.015625)"/>
      <path id="DejaVuSansMono-64" d="M 2681 3053 
L 2681 4863 
L 3256 4863 
L 3256 0 
L 2681 0 
L 2681 441 
Q 2538 181 2298 45 
Q 2059 -91 1747 -91 
Q 1113 -91 748 401 
Q 384 894 384 1759 
Q 384 2613 750 3098 
Q 1116 3584 1747 3584 
Q 2063 3584 2303 3448 
Q 2544 3313 2681 3053 
z
M 991 1747 
Q 991 1078 1203 737 
Q 1416 397 1831 397 
Q 2247 397 2464 740 
Q 2681 1084 2681 1747 
Q 2681 2413 2464 2755 
Q 2247 3097 1831 3097 
Q 1416 3097 1203 2756 
Q 991 2416 991 1747 
z
" transform="scale(0.015625)"/>
      <path id="DejaVuSansMono-6d" d="M 2113 3144 
Q 2219 3369 2383 3476 
Q 2547 3584 2778 3584 
Q 3200 3584 3373 3257 
Q 3547 2931 3547 2028 
L 3547 0 
L 3022 0 
L 3022 2003 
Q 3022 2744 2939 2923 
Q 2856 3103 2638 3103 
Q 2388 3103 2295 2911 
Q 2203 2719 2203 2003 
L 2203 0 
L 1678 0 
L 1678 2003 
Q 1678 2753 1589 2928 
Q 1500 3103 1269 3103 
Q 1041 3103 952 2911 
Q 863 2719 863 2003 
L 863 0 
L 341 0 
L 341 3500 
L 863 3500 
L 863 3200 
Q 966 3388 1120 3486 
Q 1275 3584 1472 3584 
Q 1709 3584 1867 3475 
Q 2025 3366 2113 3144 
z
" transform="scale(0.015625)"/>
      <path id="DejaVuSansMono-67" d="M 2681 1778 
Q 2681 2425 2470 2761 
Q 2259 3097 1856 3097 
Q 1434 3097 1212 2761 
Q 991 2425 991 1778 
Q 991 1131 1214 792 
Q 1438 453 1863 453 
Q 2259 453 2470 793 
Q 2681 1134 2681 1778 
z
M 3256 225 
Q 3256 -563 2884 -969 
Q 2513 -1375 1791 -1375 
Q 1553 -1375 1293 -1331 
Q 1034 -1288 775 -1203 
L 775 -634 
Q 1081 -778 1331 -847 
Q 1581 -916 1791 -916 
Q 2256 -916 2468 -662 
Q 2681 -409 2681 141 
L 2681 166 
L 2681 556 
Q 2544 263 2306 119 
Q 2069 -25 1728 -25 
Q 1116 -25 750 465 
Q 384 956 384 1778 
Q 384 2603 750 3093 
Q 1116 3584 1728 3584 
Q 2066 3584 2300 3450 
Q 2534 3316 2681 3034 
L 2681 3488 
L 3256 3488 
L 3256 225 
z
" transform="scale(0.015625)"/>
     </defs>
     <use xlink:href="#DejaVuSansMono-52"/>
     <use xlink:href="#DejaVuSansMono-65" x="60.205078"/>
     <use xlink:href="#DejaVuSansMono-73" x="120.410156"/>
     <use xlink:href="#DejaVuSansMono-75" x="180.615234"/>
     <use xlink:href="#DejaVuSansMono-6c" x="240.820312"/>
     <use xlink:href="#DejaVuSansMono-74" x="301.025391"/>
     <use xlink:href="#DejaVuSansMono-20" x="361.230469"/>
     <use xlink:href="#DejaVuSansMono-6f" x="421.435547"/>
     <use xlink:href="#DejaVuSansMono-66" x="481.640625"/>
     <use xlink:href="#DejaVuSansMono-20" x="541.845703"/>
     <use xlink:href="#DejaVuSansMono-52" x="602.050781"/>
     <use xlink:href="#DejaVuSansMono-65" x="662.255859"/>
     <use xlink:href="#DejaVuSansMono-70" x="722.460938"/>
     <use xlink:href="#DejaVuSansMono-65" x="782.666016"/>
     <use xlink:href="#DejaVuSansMono-61" x="842.871094"/>
     <use xlink:href="#DejaVuSansMono-74" x="903.076172"/>
     <use xlink:href="#DejaVuSansMono-65" x="963.28125"/>
     <use xlink:href="#DejaVuSansMono-64" x="1023.486328"/>
     <use xlink:href="#DejaVuSansMono-20" x="1083.691406"/>
     <use xlink:href="#DejaVuSansMono-53" x="1143.896484"/>
     <use xlink:href="#DejaVuSansMono-69" x="1204.101562"/>
     <use xlink:href="#DejaVuSansMono-6d" x="1264.306641"/>
     <use xlink:href="#DejaVuSansMono-75" x="1324.511719"/>
     <use xlink:href="#DejaVuSansMono-6c" x="1384.716797"/>
     <use xlink:href="#DejaVuSansMono-61" x="1444.921875"/>
     <use xlink:href="#DejaVuSansMono-74" x="1505.126953"/>
     <use xlink:href="#DejaVuSansMono-65" x="1565.332031"/>
     <use xlink:href="#DejaVuSansMono-64" x="1625.537109"/>
     <use xlink:href="#DejaVuSansMono-20" x="1685.742188"/>
     <use xlink:href="#DejaVuSansMono-41" x="1745.947266"/>
     <use xlink:href="#DejaVuSansMono-6e" x="1806.152344"/>
     <use xlink:href="#DejaVuSansMono-6e" x="1866.357422"/>
     <use xlink:href="#DejaVuSansMono-65" x="1926.5625"/>
     <use xlink:href="#DejaVuSansMono-61" x="1986.767578"/>
     <use xlink:href="#DejaVuSansMono-6c" x="2046.972656"/>
     <use xlink:href="#DejaVuSansMono-69" x="2107.177734"/>
     <use xlink:href="#DejaVuSansMono-6e" x="2167.382812"/>
     <use xlink:href="#DejaVuSansMono-67" x="2227.587891"/>
    </g>
   </g>
   <g id="legend_1">
    <g id="patch_40">
     <path d="M 483.175967 350.021875 
L 605.480655 350.021875 
Q 607.480655 350.021875 607.480655 348.021875 
L 607.480655 252.705 
Q 607.480655 250.705 605.480655 250.705 
L 483.175967 250.705 
Q 481.175967 250.705 481.175967 252.705 
L 481.175967 348.021875 
Q 481.175967 350.021875 483.175967 350.021875 
z
" style="fill: #ffffff; opacity: 0.8; stroke: #cccccc; stroke-linejoin: miter"/>
    </g>
    <g id="line2d_33">
     <path d="M 485.175967 265.561563 
L 505.175967 265.561563 
" style="fill: none; stroke-dasharray: 3.7,1.6; stroke-dashoffset: 0; stroke: #000000"/>
    </g>
    <g id="text_36">
     <!-- Train set -->
     <g transform="translate(513.175967 262.356563) scale(0.1 -0.1)">
      <use xlink:href="#DejaVuSansMono-54"/>
      <use xlink:href="#DejaVuSansMono-72" x="60.205078"/>
      <use xlink:href="#DejaVuSansMono-61" x="120.410156"/>
      <use xlink:href="#DejaVuSansMono-69" x="180.615234"/>
      <use xlink:href="#DejaVuSansMono-6e" x="240.820312"/>
      <use xlink:href="#DejaVuSansMono-20" x="301.025391"/>
      <use xlink:href="#DejaVuSansMono-73" x="361.230469"/>
      <use xlink:href="#DejaVuSansMono-65" x="421.435547"/>
      <use xlink:href="#DejaVuSansMono-74" x="481.640625"/>
     </g>
     <!-- proportion goal -->
     <g transform="translate(513.175967 273.618125) scale(0.1 -0.1)">
      <use xlink:href="#DejaVuSansMono-70"/>
      <use xlink:href="#DejaVuSansMono-72" x="60.205078"/>
      <use xlink:href="#DejaVuSansMono-6f" x="120.410156"/>
      <use xlink:href="#DejaVuSansMono-70" x="180.615234"/>
      <use xlink:href="#DejaVuSansMono-6f" x="240.820312"/>
      <use xlink:href="#DejaVuSansMono-72" x="301.025391"/>
      <use xlink:href="#DejaVuSansMono-74" x="361.230469"/>
      <use xlink:href="#DejaVuSansMono-69" x="421.435547"/>
      <use xlink:href="#DejaVuSansMono-6f" x="481.640625"/>
      <use xlink:href="#DejaVuSansMono-6e" x="541.845703"/>
      <use xlink:href="#DejaVuSansMono-20" x="602.050781"/>
      <use xlink:href="#DejaVuSansMono-67" x="662.255859"/>
      <use xlink:href="#DejaVuSansMono-6f" x="722.460938"/>
      <use xlink:href="#DejaVuSansMono-61" x="782.666016"/>
      <use xlink:href="#DejaVuSansMono-6c" x="842.871094"/>
     </g>
    </g>
    <g id="line2d_34">
     <path d="M 485.175967 291.623125 
L 505.175967 291.623125 
" style="fill: none; stroke-dasharray: 1,1.65; stroke-dashoffset: 0; stroke: #000000"/>
    </g>
    <g id="text_37">
     <!-- Dev set -->
     <g transform="translate(513.175967 288.418125) scale(0.1 -0.1)">
      <defs>
       <path id="DejaVuSansMono-76" d="M 313 3500 
L 909 3500 
L 1925 563 
L 2944 3500 
L 3541 3500 
L 2297 0 
L 1556 0 
L 313 3500 
z
" transform="scale(0.015625)"/>
      </defs>
      <use xlink:href="#DejaVuSansMono-44"/>
      <use xlink:href="#DejaVuSansMono-65" x="60.205078"/>
      <use xlink:href="#DejaVuSansMono-76" x="120.410156"/>
      <use xlink:href="#DejaVuSansMono-20" x="180.615234"/>
      <use xlink:href="#DejaVuSansMono-73" x="240.820312"/>
      <use xlink:href="#DejaVuSansMono-65" x="301.025391"/>
      <use xlink:href="#DejaVuSansMono-74" x="361.230469"/>
     </g>
     <!-- proportion goal -->
     <g transform="translate(513.175967 299.679688) scale(0.1 -0.1)">
      <use xlink:href="#DejaVuSansMono-70"/>
      <use xlink:href="#DejaVuSansMono-72" x="60.205078"/>
      <use xlink:href="#DejaVuSansMono-6f" x="120.410156"/>
      <use xlink:href="#DejaVuSansMono-70" x="180.615234"/>
      <use xlink:href="#DejaVuSansMono-6f" x="240.820312"/>
      <use xlink:href="#DejaVuSansMono-72" x="301.025391"/>
      <use xlink:href="#DejaVuSansMono-74" x="361.230469"/>
      <use xlink:href="#DejaVuSansMono-69" x="421.435547"/>
      <use xlink:href="#DejaVuSansMono-6f" x="481.640625"/>
      <use xlink:href="#DejaVuSansMono-6e" x="541.845703"/>
      <use xlink:href="#DejaVuSansMono-20" x="602.050781"/>
      <use xlink:href="#DejaVuSansMono-67" x="662.255859"/>
      <use xlink:href="#DejaVuSansMono-6f" x="722.460938"/>
      <use xlink:href="#DejaVuSansMono-61" x="782.666016"/>
      <use xlink:href="#DejaVuSansMono-6c" x="842.871094"/>
     </g>
    </g>
    <g id="patch_41">
     <path d="M 485.175967 314.479688 
L 505.175967 314.479688 
L 505.175967 307.479688 
L 485.175967 307.479688 
z
" style="fill: #377e22"/>
    </g>
    <g id="text_38">
     <!-- train -->
     <g transform="translate(513.175967 314.479688) scale(0.1 -0.1)">
      <use xlink:href="#DejaVuSansMono-74"/>
      <use xlink:href="#DejaVuSansMono-72" x="60.205078"/>
      <use xlink:href="#DejaVuSansMono-61" x="120.410156"/>
      <use xlink:href="#DejaVuSansMono-69" x="180.615234"/>
      <use xlink:href="#DejaVuSansMono-6e" x="240.820312"/>
     </g>
    </g>
    <g id="patch_42">
     <path d="M 485.175967 329.210938 
L 505.175967 329.210938 
L 505.175967 322.210938 
L 485.175967 322.210938 
z
" style="fill: #75fbfd"/>
    </g>
    <g id="text_39">
     <!-- val -->
     <g transform="translate(513.175967 329.210938) scale(0.1 -0.1)">
      <use xlink:href="#DejaVuSansMono-76"/>
      <use xlink:href="#DejaVuSansMono-61" x="60.205078"/>
      <use xlink:href="#DejaVuSansMono-6c" x="120.410156"/>
     </g>
    </g>
    <g id="patch_43">
     <path d="M 485.175967 343.942188 
L 505.175967 343.942188 
L 505.175967 336.942188 
L 485.175967 336.942188 
z
" style="fill: #0000f5"/>
    </g>
    <g id="text_40">
     <!-- test -->
     <g transform="translate(513.175967 343.942188) scale(0.1 -0.1)">
      <use xlink:href="#DejaVuSansMono-74"/>
      <use xlink:href="#DejaVuSansMono-65" x="60.205078"/>
      <use xlink:href="#DejaVuSansMono-73" x="120.410156"/>
      <use xlink:href="#DejaVuSansMono-74" x="180.615234"/>
     </g>
    </g>
   </g>
  </g>
 </g>
 <defs>
  <clipPath id="p9836217e27">
   <rect x="54.480655" y="22.381875" width="558" height="332.64"/>
  </clipPath>
 </defs>
</svg>
